<svg viewBox="0 0 430 430" xmlns="http://www.w3.org/2000/svg">
  <style>
    path { fill: #000; }
    @media (prefers-color-scheme: dark) {
      path { fill: #fff; }
    }
  </style>
  <path d="M397.28,365.98l-1.08,1.61c-10.74,16.05-36.45,25.64-68.79,25.64-25.48,0-49.29-7.51-60.66-19.14-3.63-3.7-5.43-7.32-5.36-10.75.19-8.3,5.24-13.89,7.86-16.24,17.29,9.26,37.24,14.15,57.78,14.15,12.46,0,74.61-1.64,74.61-34s-62.15-34-74.61-34c-20.65,0-40.59,4.88-57.77,14.14-2.62-2.39-7.68-8.05-7.86-16.23-.07-3.44,1.73-7.06,5.36-10.75,11.37-11.63,35.18-19.15,60.66-19.15,32.37,0,58.08,9.58,68.79,25.64l1.07,1.61,27.32-18.24-1.08-1.61c-8.11-12.09-33.7-40.23-96.1-40.23-34.9,0-66.34,10.84-84.11,29-9.93,10.1-15.03,22-14.75,34.42.33,16.76,8.54,28.93,14.18,35.35-5.62,6.4-13.8,18.55-14.18,35.35-.24,12.39,4.86,24.29,14.75,34.42,17.81,18.17,49.25,29.01,84.11,29.01,62.29,0,87.95-28.08,96.09-40.15l1.09-1.61-27.32-18.24ZM302.75,327.24c7.74-2.05,15.9-3.09,24.29-3.09,13.03,0,23.67,1.35,31.45,3.09-7.77,1.74-18.45,3.09-31.45,3.09-8.39,0-16.55-1.04-24.29-3.09Z"/>
  <path d="M104.26,3.94c-54.51,0-98.86,44.35-98.86,98.86,0,54.51,44.35,98.86,98.86,98.86,54.51,0,98.86-44.35,98.86-98.86S158.77,3.94,104.26,3.94ZM170.28,102.8c0,36.41-29.62,66.02-66.02,66.02-36.4,0-66.02-29.62-66.02-66.02,0-36.41,29.62-66.02,66.02-66.02,36.41,0,66.02,29.62,66.02,66.02Z"/>
  <path d="M104.26,228.34c-54.51,0-98.86,44.35-98.86,98.86,0,54.51,44.35,98.86,98.86,98.86,54.51,0,98.86-44.35,98.86-98.86s-44.35-98.86-98.86-98.86ZM170.28,327.2c0,36.4-29.62,66.02-66.02,66.02-36.4,0-66.02-29.62-66.02-66.02,0-36.41,29.62-66.02,66.02-66.02,36.41,0,66.02,29.62,66.02,66.02Z"/>
  <path d="M388.15,11.79v58.15c-38.1-19.35-85.01-19.35-123.11-.02V11.79s-32.84,0-32.84,0v182.1s32.84,0,32.84,0v-6.89c18.58,9.45,39.62,14.51,61.54,14.51,21.94,0,42.99-5.06,61.58-14.51v6.89h32.84s0-182.1,0-182.1h-32.84ZM265.04,108.64c35.33-27.45,87.78-27.45,123.11,0v39.61c-35.33,27.45-87.79,27.44-123.11,0v-39.6Z"/>
</svg>
