<?xml version="1.0" encoding="UTF-8"?>
<svg id="Layer_1" xmlns="http://www.w3.org/2000/svg" version="1.1" viewBox="0 0 1366 768">
  <!-- Generator: Adobe Illustrator 30.2.1, SVG Export Plug-In . SVG Version: 2.1.1 Build 1)  -->
  <defs>
    <style>
      .st0 {
        stroke: #fff;
      }

      .st0, .st1 {
        fill: none;
        stroke-miterlimit: 10;
      }

      .st2 {
        fill: #fff;
      }

      .st1 {
        stroke: #000;
        stroke-width: .5px;
      }
    </style>
  </defs>
  <rect x="316" y="253.9" width="734" height="261.21" rx="6.25" ry="6.25"/>
  <g>
    <path class="st2" d="M1016.8,312.64l-.1.14c-.95,1.43-3.24,2.28-6.11,2.28-2.26,0-4.38-.67-5.39-1.7-.32-.33-.48-.65-.48-.95.02-.74.47-1.23.7-1.44,1.54.82,3.31,1.26,5.13,1.26,1.11,0,6.63-.15,6.63-3.02s-5.52-3.02-6.63-3.02c-1.83,0-3.6.43-5.13,1.26-.23-.21-.68-.71-.7-1.44,0-.31.15-.63.48-.96,1.01-1.03,3.12-1.7,5.39-1.7,2.87,0,5.16.85,6.11,2.28l.1.14,2.43-1.62-.1-.14c-.72-1.07-2.99-3.57-8.53-3.57-3.1,0-5.89.96-7.47,2.58-.88.9-1.34,1.95-1.31,3.06.03,1.49.76,2.57,1.26,3.14-.5.57-1.23,1.65-1.26,3.14-.02,1.1.43,2.16,1.31,3.06,1.58,1.61,4.37,2.58,7.47,2.58,5.53,0,7.81-2.49,8.53-3.57l.1-.14-2.43-1.62ZM1008.4,309.2c.69-.18,1.41-.27,2.16-.27,1.16,0,2.1.12,2.79.27-.69.15-1.64.27-2.79.27-.75,0-1.47-.09-2.16-.27Z"/>
    <path class="st2" d="M990.77,280.49c-4.84,0-8.78,3.94-8.78,8.78,0,4.84,3.94,8.78,8.78,8.78s8.78-3.94,8.78-8.78-3.94-8.78-8.78-8.78ZM996.64,289.27c0,3.23-2.63,5.86-5.86,5.86s-5.86-2.63-5.86-5.86c0-3.23,2.63-5.86,5.86-5.86,3.23,0,5.86,2.63,5.86,5.86Z"/>
    <path class="st2" d="M990.77,300.41c-4.84,0-8.78,3.94-8.78,8.78,0,4.84,3.94,8.78,8.78,8.78,4.84,0,8.78-3.94,8.78-8.78s-3.94-8.78-8.78-8.78ZM996.64,309.19c0,3.23-2.63,5.86-5.86,5.86s-5.86-2.63-5.86-5.86c0-3.23,2.63-5.86,5.86-5.86s5.86,2.63,5.86,5.86Z"/>
    <path class="st2" d="M1015.98,281.18v5.16c-3.38-1.72-7.55-1.72-10.93,0v-5.16h-2.92v16.17h2.92v-.61c1.65.84,3.52,1.29,5.46,1.29s3.82-.45,5.47-1.29v.61h2.92v-16.17h-2.92ZM1005.05,289.79c3.14-2.44,7.8-2.44,10.93,0v3.52c-3.14,2.44-7.8,2.44-10.93,0v-3.52Z"/>
  </g>
  <g>
    <path class="st2" d="M506.58,293.83h-1.75l-4.14-11.9h2.46l2.66,8.1,2.91-8.21h1.28l2.75,8.21,2.85-8.1h2.46l-4.41,11.9h-1.75l-2.6-7.55-2.73,7.55Z"/>
    <path class="st2" d="M525.97,283.93h-4.28v2.66h4.1v2h-4.1v3.25h4.28v2h-6.6v-11.9h6.6v2Z"/>
    <path class="st2" d="M534.52,286.54h5.03v-4.6h2.32v11.9h-2.32v-5.3h-5.03v5.3h-2.32v-11.9h2.32v4.6Z"/>
    <path class="st2" d="M551.54,291.34h-4.8l-1.05,2.5h-2.52l5.12-11.9h1.82l4.98,11.9h-2.5l-1.05-2.5ZM550.87,289.45l-1.69-4.28-1.69,4.28h3.39Z"/>
    <path class="st2" d="M556.51,281.94l3.17,7.99,3.18-7.99h2.53l-5.03,11.9h-1.39l-4.99-11.9h2.53Z"/>
    <path class="st2" d="M573.3,283.93h-4.28v2.66h4.1v2h-4.1v3.25h4.28v2h-6.6v-11.9h6.6v2Z"/>
    <path class="st2" d="M505.76,305.35v9.9h-2.32v-9.9h-2.68v-2h7.67v2h-2.68Z"/>
    <path class="st2" d="M512.13,303.35v11.9h-2.32v-11.9h2.32Z"/>
    <path class="st2" d="M516.36,303.35h1.68l3.16,7.56,3.3-7.56h1.68l2,11.9h-2.35l-1.07-7.33-3.19,7.33h-.79l-3.05-7.33-1.21,7.33h-2.35l2.21-11.9Z"/>
    <path class="st2" d="M536.79,305.35h-4.28v2.66h4.1v2h-4.1v3.25h4.28v2h-6.6v-11.9h6.6v2Z"/>
    <path class="st2" d="M539.56,312.79l2,.23-2.52,4.73-1.37-.16,1.89-4.8Z"/>
    <path class="st2" d="M555.83,312.75h-4.8l-1.05,2.5h-2.52l5.12-11.9h1.82l4.98,11.9h-2.5l-1.05-2.5ZM555.15,310.86l-1.69-4.28-1.69,4.28h3.39Z"/>
    <path class="st2" d="M563,303.35v11.9h-2.32v-11.9h2.32Z"/>
    <path class="st2" d="M569.07,303.35c1.64,0,2.48.43,3.03.89.91.77,1.18,1.78,1.18,2.68,0,1.16-.46,2.18-1.39,2.8-.3.21-.73.41-1.3.52l3.71,5.01h-2.89l-3.18-4.78h-.29v4.78h-2.32v-11.9h3.44ZM567.95,308.83h.66c.45,0,2.28-.05,2.28-1.8s-1.82-1.78-2.25-1.78h-.7v3.59Z"/>
    <path class="st2" d="M586.89,312.75h-4.8l-1.05,2.5h-2.52l5.12-11.9h1.82l4.98,11.9h-2.5l-1.05-2.5ZM586.22,310.86l-1.69-4.28-1.69,4.28h3.39Z"/>
    <path class="st2" d="M591.75,315.25v-11.9h1.61l7.24,7.94v-7.94h2.32v11.9h-1.61l-7.24-7.96v7.96h-2.32Z"/>
    <path class="st2" d="M608.65,303.35c1.66,0,3.1.18,4.42,1.16,1.44,1.09,2.28,2.82,2.28,4.8s-.82,3.69-2.39,4.8c-1.39.98-2.69,1.14-4.35,1.14h-3.07v-11.9h3.1ZM607.86,313.25h.71c.59,0,1.87-.04,2.91-.78.95-.68,1.48-1.89,1.48-3.16s-.52-2.46-1.46-3.17c-.96-.71-2.14-.79-2.93-.79h-.71v7.9Z"/>
    <path class="st2" d="M633.61,309.31c0,3.62-2.6,6.21-6.35,6.21s-6.35-2.59-6.35-6.21,2.6-6.23,6.35-6.23,6.35,2.6,6.35,6.23ZM631.22,309.31c0-2.41-1.64-4.12-3.96-4.12s-3.96,1.71-3.96,4.12,1.64,4.1,3.96,4.1,3.96-1.69,3.96-4.1Z"/>
    <path class="st2" d="M638.61,303.35c.66,0,1.94,0,2.91.75.7.54,1.11,1.46,1.11,2.46,0,1.53-1.02,2.16-1.34,2.34.78.12,1.25.46,1.55.75.71.68.86,1.61.86,2.23,0,.7-.2,1.68-1.02,2.41-.89.79-1.98.96-3.01.96h-4v-11.9h2.94ZM637.99,308.29h.66c.36,0,1.8-.04,1.8-1.55,0-1.09-.84-1.5-1.78-1.5h-.68v3.05ZM637.99,313.36h1c.43,0,1.07-.02,1.59-.32.57-.34.73-.91.73-1.37,0-.37-.12-1.02-.87-1.36-.5-.23-1.09-.23-1.59-.23h-.86v3.28Z"/>
    <path class="st2" d="M650,303.35v8.03c0,1.05-.07,2.71-1.39,3.6-.52.34-1.23.54-1.94.54-.86,0-1.87-.29-2.73-1.11l1.41-1.69c.23.34.61.64,1.16.64.5,0,.78-.21.91-.41.29-.41.27-1.19.27-1.93v-7.67h2.32Z"/>
    <path class="st2" d="M659.22,305.35h-4.28v2.66h4.1v2h-4.1v3.25h4.28v2h-6.6v-11.9h6.6v2Z"/>
    <path class="st2" d="M670.02,314.82c-.71.37-1.66.7-2.94.7-2.09,0-3.35-.71-4.35-1.66-1.37-1.32-1.91-2.8-1.91-4.55,0-2.16.89-3.71,1.91-4.66,1.2-1.12,2.68-1.57,4.37-1.57.84,0,1.84.14,2.93.73v2.71c-1.09-1.25-2.44-1.34-2.87-1.34-2.39,0-3.94,1.96-3.94,4.16,0,2.64,2.03,4.07,4.03,4.07,1.11,0,2.09-.48,2.78-1.3v2.71Z"/>
    <path class="st2" d="M676.01,305.35v9.9h-2.32v-9.9h-2.68v-2h7.67v2h-2.68Z"/>
    <path class="st2" d="M685.42,306.06c-.7-.93-1.52-1.02-1.94-1.02-1.25,0-1.64.79-1.64,1.39,0,.29.09.55.37.8.29.27.68.41,1.43.68.93.32,1.8.64,2.41,1.19.54.48,1.02,1.28,1.02,2.5,0,2.32-1.68,3.91-4.14,3.91-2.19,0-3.48-1.34-4.1-2.25l1.52-1.44c.57,1.16,1.66,1.59,2.5,1.59,1.05,0,1.84-.64,1.84-1.64,0-.43-.14-.77-.46-1.07-.45-.41-1.16-.64-1.84-.87-.62-.21-1.37-.5-1.98-1.03-.39-.34-.95-1-.95-2.21,0-1.75,1.18-3.5,3.82-3.5.75,0,2.16.14,3.37,1.39l-1.21,1.59Z"/>
    <path class="st2" d="M689.9,312.7c.79,0,1.39.61,1.39,1.39s-.61,1.39-1.39,1.39-1.39-.61-1.39-1.39.61-1.39,1.39-1.39Z"/>
  </g>
  <g>
    <path class="st2" d="M397.05,314.78c0,3.73-3.04,6.63-6.63,6.63v6.36c7.19,0,12.99-5.81,12.99-12.99v-22.11h-6.36v22.11Z"/>
    <path class="st2" d="M354.35,291.7c-6.63,0-12.02,5.39-12.02,12.02s5.39,12.02,12.02,12.02,12.02-5.39,12.02-12.02-5.39-12.02-12.02-12.02ZM354.35,309.39c-3.18,0-5.67-2.49-5.67-5.67s2.49-5.67,5.67-5.67,5.67,2.49,5.67,5.67-2.63,5.67-5.67,5.67Z"/>
    <path class="st2" d="M394.57,303.73c0-6.63-5.39-12.02-12.02-12.02-2.9,0-5.53.97-7.6,2.76v-13.13h-6.36v33.45h6.36v-1.8c2.07,1.66,4.7,2.76,7.6,2.76,6.63,0,12.02-5.39,12.02-12.02ZM376.88,303.73c0-3.18,2.49-5.67,5.67-5.67s5.67,2.49,5.67,5.67-2.49,5.67-5.67,5.67-5.67-2.49-5.67-5.67Z"/>
    <circle class="st2" cx="400.23" cy="285.34" r="4.42"/>
    <polygon class="st2" points="431.19 292.67 422.07 292.67 414.33 300.41 414.33 281.34 407.97 281.34 407.97 314.78 414.33 314.78 414.33 309.53 416.68 307.18 424.28 314.78 433.4 314.78 421.24 302.62 431.19 292.67"/>
    <path class="st2" d="M442.39,287.28h-6.36v5.39h-3.73v6.36h3.73v8.85c0,5.53,4.56,10.09,10.09,10.09v-6.36c-2.07,0-3.73-1.66-3.73-3.73v-8.85h3.73v-6.36h-3.73v-5.39h0Z"/>
    <path class="st2" d="M462.84,299.03v-6.36h-3.73v-5.39h-6.36v5.39h-3.73v6.36h3.73v8.85c0,5.53,4.56,10.09,10.09,10.09v-6.36c-2.07,0-3.73-1.66-3.73-3.73v-8.85h3.73Z"/>
  </g>
  <path class="st2" d="M799.5,317.13c-.73,0-1.32-.59-1.32-1.32v-8.3c0-.73.59-1.32,1.32-1.32h6.98v-6.98c0-.73.59-1.32,1.32-1.32h6.98v-6.96c0-.73.59-1.32,1.32-1.32h6.98v-6.96c0-.73.59-1.32,1.32-1.32h8.3c.73,0,1.32.59,1.32,1.32s-.59,1.32-1.32,1.32h-6.98v6.96c0,.73-.59,1.32-1.32,1.32h-6.98v6.96c0,.73-.59,1.32-1.32,1.32h-6.98v6.98c0,.73-.59,1.32-1.32,1.32h-6.98v6.98c0,.73-.59,1.32-1.32,1.32Z"/>
  <g>
    <path class="st2" d="M766.45,317.13c-5.04,0-8.99-7.86-8.99-17.89s3.95-17.89,8.99-17.89,8.99,7.86,8.99,17.89-3.95,17.89-8.99,17.89ZM766.45,283.97c-3.01,0-6.35,6.27-6.35,15.26s3.35,15.26,6.35,15.26,6.35-6.27,6.35-15.26-3.35-15.26-6.35-15.26Z"/>
    <path class="st2" d="M758.78,317.13c-5.04,0-8.99-7.86-8.99-17.89s3.95-17.89,8.99-17.89,8.99,7.86,8.99,17.89-3.95,17.89-8.99,17.89ZM758.78,283.97c-3.01,0-6.35,6.27-6.35,15.26s3.35,15.26,6.35,15.26,6.35-6.27,6.35-15.26-3.35-15.26-6.35-15.26Z"/>
    <path class="st2" d="M774.12,317.13c-5.04,0-8.99-7.86-8.99-17.89s3.95-17.89,8.99-17.89,8.99,7.86,8.99,17.89-3.95,17.89-8.99,17.89ZM774.12,283.97c-3.01,0-6.35,6.27-6.35,15.26s3.35,15.26,6.35,15.26,6.35-6.27,6.35-15.26-3.35-15.26-6.35-15.26Z"/>
  </g>
  <g>
    <path class="st2" d="M860.5,317.13c-9.87,0-17.89-8.03-17.89-17.89s8.03-17.89,17.89-17.89,17.89,8.03,17.89,17.89-8.03,17.89-17.89,17.89ZM860.5,283.97c-8.41,0-15.26,6.85-15.26,15.26s6.85,15.26,15.26,15.26,15.26-6.85,15.26-15.26-6.85-15.26-15.26-15.26Z"/>
    <path class="st2" d="M873.59,302.5c-1.97,0-2.75-1.91-3.39-3.45-.24-.59-.69-1.68-.98-1.83-.23.14-.68,1.24-.93,1.83-.63,1.54-1.42,3.45-3.39,3.45s-2.76-1.91-3.39-3.45c-.24-.59-.69-1.68-.98-1.83-.23.14-.68,1.24-.93,1.83-.63,1.54-1.42,3.45-3.39,3.45s-2.76-1.91-3.4-3.45c-.24-.59-.69-1.68-.98-1.83-.24.14-.69,1.24-.93,1.83-.63,1.54-1.42,3.45-3.39,3.45-.73,0-1.32-.59-1.32-1.32s.59-1.32,1.32-1.32c.26-.14.72-1.23.96-1.82.63-1.54,1.42-3.45,3.39-3.45s2.76,1.91,3.39,3.45c.24.59.7,1.68.99,1.83.23-.14.69-1.24.93-1.83.63-1.54,1.42-3.45,3.39-3.45s2.76,1.91,3.39,3.45c.24.59.69,1.68.98,1.83.23-.14.68-1.24.93-1.83.63-1.54,1.42-3.45,3.39-3.45s2.75,1.91,3.39,3.45c.24.59.69,1.68.98,1.83.73,0,1.3.59,1.3,1.31s-.6,1.31-1.33,1.31Z"/>
  </g>
  <g>
    <path class="st2" d="M908.28,309.52c-4.41,0-6.16-2.6-6.27-2.76-.39-.61-.22-1.43.39-1.82.61-.39,1.43-.22,1.82.39.1.14,2.86,3.88,11.56-.72,7.72-4.08,10.43-16.42,11.14-20.58-6.9-.29-21.57-.01-25.71,4.21-5.1,5.2-.74,13.5-.69,13.59.34.64.1,1.44-.54,1.78-.64.34-1.44.11-1.78-.53-.22-.41-5.33-10.09,1.13-16.68,6.21-6.33,28.25-4.98,29.19-4.92.36.02.69.19.93.47.23.28.34.64.3.99-.08.75-2.21,18.44-12.73,24-3.66,1.93-6.53,2.59-8.74,2.59Z"/>
    <path class="st2" d="M895.62,317.16s-.06,0-.08,0c-.73-.05-1.28-.67-1.23-1.4,1.34-21.35,22.11-25.69,22.32-25.73.71-.14,1.4.32,1.55,1.04.14.71-.32,1.41-1.04,1.55-.77.15-18.99,4.01-20.2,23.31-.04.7-.62,1.24-1.31,1.24Z"/>
  </g>
  <g>
    <path class="st2" d="M808.17,365.95c-.56-.74-1.21-.81-1.56-.81-1,0-1.31.63-1.31,1.11,0,.23.07.44.3.64.23.21.54.33,1.14.54.74.26,1.44.51,1.93.96.43.39.81,1.03.81,2,0,1.86-1.34,3.13-3.31,3.13-1.76,0-2.79-1.07-3.29-1.8l1.21-1.16c.46.93,1.33,1.27,2,1.27.84,0,1.47-.51,1.47-1.31,0-.34-.11-.61-.37-.86-.36-.33-.93-.51-1.47-.7-.5-.17-1.1-.4-1.59-.83-.31-.27-.76-.8-.76-1.77,0-1.4.94-2.8,3.06-2.8.6,0,1.73.11,2.7,1.11l-.97,1.27Z"/>
    <path class="st2" d="M816.32,365.38h-3.43v2.13h3.29v1.6h-3.29v2.6h3.43v1.6h-5.29v-9.53h5.29v1.6Z"/>
    <path class="st2" d="M827.76,368.55c0,2.9-2.09,4.97-5.08,4.97s-5.08-2.07-5.08-4.97,2.09-4.98,5.08-4.98,5.08,2.08,5.08,4.98ZM825.84,368.55c0-1.93-1.31-3.3-3.17-3.3s-3.17,1.37-3.17,3.3,1.31,3.28,3.17,3.28,3.17-1.36,3.17-3.28Z"/>
    <path class="st2" d="M831.25,363.78v5.98c0,.73.24,1.17.46,1.41.27.33.77.66,1.51.66s1.24-.33,1.51-.66c.21-.24.46-.69.46-1.41v-5.98h1.86v5.83c0,.9-.14,1.81-.71,2.54-.69.9-1.88,1.37-3.11,1.37s-2.43-.47-3.11-1.37c-.57-.73-.71-1.64-.71-2.54v-5.83h1.86Z"/>
    <path class="st2" d="M841,363.78v7.93h2.94v1.6h-4.8v-9.53h1.86Z"/>
    <path class="st2" d="M845.64,371.33l1.6.19-2.01,3.78-1.1-.13,1.51-3.84Z"/>
    <path class="st2" d="M806.88,380.91v6.43c0,.84-.06,2.17-1.11,2.89-.42.27-.99.43-1.56.43-.69,0-1.5-.23-2.18-.88l1.13-1.36c.19.27.49.51.93.51.4,0,.63-.17.73-.33.23-.33.21-.96.21-1.54v-6.14h1.86Z"/>
    <path class="st2" d="M810.84,380.91v5.98c0,.73.24,1.17.46,1.41.27.33.77.66,1.51.66s1.24-.33,1.51-.66c.21-.24.46-.69.46-1.41v-5.98h1.86v5.83c0,.9-.14,1.81-.71,2.54-.69.9-1.88,1.37-3.11,1.37s-2.43-.47-3.11-1.37c-.57-.73-.71-1.64-.71-2.54v-5.83h1.86Z"/>
    <path class="st2" d="M818.73,390.43v-9.53h1.29l5.8,6.36v-6.36h1.86v9.53h-1.29l-5.8-6.37v6.37h-1.86Z"/>
    <path class="st2" d="M834.59,385.33h4.37v.11c0,.64-.09,2.64-1.4,3.94-.99.99-2.2,1.26-3.38,1.26s-2.41-.24-3.46-1.29c-.33-.33-1.41-1.53-1.41-3.67,0-1.84.83-2.97,1.4-3.54.71-.73,1.91-1.46,3.76-1.46.71,0,1.47.11,2.2.5.61.31,1.29.89,1.79,1.74l-1.61.87c-.33-.64-.81-.97-1.11-1.13-.4-.2-.9-.3-1.34-.3-.76,0-1.61.27-2.2.84-.54.53-.96,1.44-.96,2.51,0,1.27.54,2.03.94,2.41.43.41,1.1.81,2.11.81.63,0,1.34-.17,1.87-.57.37-.29.74-.77.9-1.46h-2.46v-1.6Z"/>
    <path class="st2" d="M840.23,384.76h3.71v1.6h-3.71v-1.6Z"/>
    <path class="st2" d="M850.5,385.33h4.37v.11c0,.64-.09,2.64-1.4,3.94-.99.99-2.2,1.26-3.38,1.26s-2.41-.24-3.46-1.29c-.33-.33-1.41-1.53-1.41-3.67,0-1.84.83-2.97,1.4-3.54.71-.73,1.91-1.46,3.76-1.46.71,0,1.47.11,2.2.5.61.31,1.29.89,1.79,1.74l-1.61.87c-.33-.64-.81-.97-1.11-1.13-.4-.2-.9-.3-1.34-.3-.76,0-1.61.27-2.2.84-.54.53-.96,1.44-.96,2.51,0,1.27.54,2.03.94,2.41.43.41,1.1.81,2.11.81.63,0,1.34-.17,1.87-.57.37-.29.74-.77.9-1.46h-2.46v-1.6Z"/>
    <path class="st2" d="M858.36,380.91v5.98c0,.73.24,1.17.46,1.41.27.33.77.66,1.51.66s1.24-.33,1.51-.66c.21-.24.46-.69.46-1.41v-5.98h1.86v5.83c0,.9-.14,1.81-.71,2.54-.69.9-1.88,1.37-3.11,1.37s-2.43-.47-3.11-1.37c-.57-.73-.71-1.64-.71-2.54v-5.83h1.86Z"/>
    <path class="st2" d="M866.74,388.46l1.6.19-2.01,3.79-1.1-.13,1.51-3.84Z"/>
    <path class="st2" d="M804.77,398.04h1.34l2.53,6.06,2.64-6.06h1.34l1.6,9.53h-1.89l-.86-5.87-2.56,5.87h-.63l-2.44-5.87-.97,5.87h-1.89l1.77-9.53Z"/>
    <path class="st2" d="M817.39,403.21l-3.27-5.17h2.2l2.04,3.31,2.04-3.31h2.2l-3.36,5.17v4.36h-1.86v-4.36Z"/>
    <path class="st2" d="M828.87,399.64h-3.43v2.13h3.29v1.6h-3.29v2.6h3.43v1.6h-5.29v-9.53h5.29v1.6Z"/>
    <path class="st2" d="M840.31,402.81c0,2.9-2.09,4.97-5.08,4.97s-5.08-2.07-5.08-4.97,2.09-4.98,5.08-4.98,5.08,2.08,5.08,4.98ZM838.39,402.81c0-1.93-1.31-3.3-3.17-3.3s-3.17,1.37-3.17,3.3,1.31,3.29,3.17,3.29,3.17-1.36,3.17-3.29Z"/>
    <path class="st2" d="M841.94,407.57v-9.53h1.29l5.8,6.36v-6.36h1.86v9.53h-1.29l-5.8-6.37v6.37h-1.86Z"/>
    <path class="st2" d="M857.81,402.47h4.37v.11c0,.64-.09,2.64-1.4,3.94-.99.99-2.2,1.26-3.38,1.26s-2.41-.24-3.46-1.29c-.33-.33-1.41-1.53-1.41-3.67,0-1.84.83-2.97,1.4-3.54.71-.73,1.91-1.46,3.76-1.46.71,0,1.47.11,2.2.5.61.31,1.29.88,1.79,1.74l-1.61.87c-.33-.64-.81-.97-1.11-1.13-.4-.2-.9-.3-1.34-.3-.76,0-1.61.27-2.2.84-.54.53-.96,1.44-.96,2.51,0,1.27.54,2.03.94,2.41.43.41,1.1.81,2.11.81.63,0,1.34-.17,1.87-.57.37-.29.74-.77.9-1.46h-2.46v-1.6Z"/>
    <path class="st2" d="M866.3,398.04c1.33,0,2.49.14,3.54.93,1.16.87,1.83,2.26,1.83,3.84s-.66,2.96-1.91,3.84c-1.11.79-2.16.91-3.49.91h-2.46v-9.53h2.48ZM865.67,405.97h.57c.47,0,1.5-.03,2.33-.63.76-.54,1.19-1.51,1.19-2.53s-.42-1.97-1.17-2.54c-.77-.57-1.71-.63-2.34-.63h-.57v6.33Z"/>
    <path class="st2" d="M883.02,402.81c0,2.9-2.08,4.97-5.08,4.97s-5.08-2.07-5.08-4.97,2.08-4.98,5.08-4.98,5.08,2.08,5.08,4.98ZM881.11,402.81c0-1.93-1.31-3.3-3.17-3.3s-3.17,1.37-3.17,3.3,1.31,3.29,3.17,3.29,3.17-1.36,3.17-3.29Z"/>
    <path class="st2" d="M884.66,407.57v-9.53h1.29l5.8,6.36v-6.36h1.86v9.53h-1.29l-5.8-6.37v6.37h-1.86Z"/>
    <path class="st2" d="M900.52,402.47h4.37v.11c0,.64-.09,2.64-1.4,3.94-.99.99-2.2,1.26-3.38,1.26s-2.41-.24-3.46-1.29c-.33-.33-1.41-1.53-1.41-3.67,0-1.84.83-2.97,1.4-3.54.71-.73,1.91-1.46,3.76-1.46.71,0,1.47.11,2.2.5.61.31,1.29.88,1.79,1.74l-1.61.87c-.33-.64-.81-.97-1.11-1.13-.4-.2-.9-.3-1.34-.3-.76,0-1.61.27-2.2.84-.54.53-.96,1.44-.96,2.51,0,1.27.54,2.03.94,2.41.43.41,1.1.81,2.11.81.63,0,1.34-.17,1.87-.57.37-.29.74-.77.9-1.46h-2.46v-1.6Z"/>
    <path class="st2" d="M916.07,404.97c0,1.57-1.26,2.81-3.31,2.81s-3.31-1.24-3.31-2.81c0-1.1.64-2.03,1.7-2.37-.73-.36-1.37-1.06-1.37-2.11,0-1.39,1-2.66,2.99-2.66s2.98,1.27,2.98,2.66c0,1.06-.64,1.76-1.37,2.11,1.06.34,1.7,1.27,1.7,2.37ZM914.21,404.84c0-.87-.63-1.49-1.46-1.49s-1.46.61-1.46,1.49.63,1.49,1.46,1.49,1.46-.61,1.46-1.49ZM914.08,400.5c0-.79-.54-1.33-1.33-1.33s-1.33.54-1.33,1.33.54,1.33,1.33,1.33,1.33-.54,1.33-1.33Z"/>
    <path class="st2" d="M922.65,402.47h4.37v.11c0,.64-.09,2.64-1.4,3.94-.99.99-2.2,1.26-3.38,1.26s-2.41-.24-3.46-1.29c-.33-.33-1.41-1.53-1.41-3.67,0-1.84.83-2.97,1.4-3.54.71-.73,1.91-1.46,3.76-1.46.71,0,1.47.11,2.2.5.61.31,1.29.88,1.79,1.74l-1.61.87c-.33-.64-.81-.97-1.11-1.13-.4-.2-.9-.3-1.34-.3-.76,0-1.61.27-2.2.84-.54.53-.96,1.44-.96,2.51,0,1.27.54,2.03.94,2.41.43.41,1.1.81,2.11.81.63,0,1.34-.17,1.87-.57.37-.29.74-.77.9-1.46h-2.46v-1.6Z"/>
    <path class="st2" d="M934.01,405.57h-3.84l-.84,2h-2.01l4.1-9.53h1.46l3.99,9.53h-2l-.84-2ZM933.47,404.05l-1.36-3.43-1.36,3.43h2.71Z"/>
    <path class="st2" d="M938.12,401.9h3.71v1.6h-3.71v-1.6Z"/>
    <path class="st2" d="M948.39,402.47h4.37v.11c0,.64-.09,2.64-1.4,3.94-.99.99-2.2,1.26-3.38,1.26s-2.41-.24-3.46-1.29c-.33-.33-1.41-1.53-1.41-3.67,0-1.84.83-2.97,1.4-3.54.71-.73,1.91-1.46,3.76-1.46.71,0,1.47.11,2.2.5.61.31,1.29.88,1.79,1.74l-1.61.87c-.33-.64-.81-.97-1.11-1.13-.4-.2-.9-.3-1.34-.3-.76,0-1.61.27-2.2.84-.54.53-.96,1.44-.96,2.51,0,1.27.54,2.03.94,2.41.43.41,1.1.81,2.11.81.63,0,1.34-.17,1.87-.57.37-.29.74-.77.9-1.46h-2.46v-1.6Z"/>
    <path class="st2" d="M956.25,398.04v9.53h-1.86v-9.53h1.86Z"/>
    <path class="st2" d="M960.21,398.04v7.93h2.94v1.6h-4.8v-9.53h1.86Z"/>
    <path class="st2" d="M964.85,405.59l1.6.19-2.01,3.78-1.1-.13,1.51-3.84Z"/>
    <path class="st2" d="M809.14,416.77h-3.17l-.34,1.5c.19-.03.4-.06.64-.06,1.01,0,1.91.4,2.46.96.76.77.84,1.71.84,2.29,0,1.03-.31,1.83-.97,2.49-.76.76-1.6.97-2.61.97-.51,0-1.33-.04-2.06-.4-.39-.19-.81-.49-1.16-.81l.61-1.6c.26.34.56.63.99.86.47.26.93.36,1.39.36.79,0,1.23-.33,1.46-.57.27-.29.5-.77.5-1.38,0-.54-.16-.96-.56-1.31-.49-.43-1.03-.49-1.49-.49-.67,0-1.34.19-2.06.61l1.13-5h4.4v1.6Z"/>
    <path class="st2" d="M817.8,422.1c0,1.57-1.26,2.81-3.31,2.81s-3.31-1.24-3.31-2.81c0-1.1.64-2.03,1.7-2.37-.73-.36-1.37-1.06-1.37-2.11,0-1.39,1-2.66,2.99-2.66s2.98,1.27,2.98,2.66c0,1.06-.64,1.76-1.37,2.11,1.06.34,1.7,1.27,1.7,2.37ZM815.95,421.97c0-.87-.63-1.49-1.46-1.49s-1.46.61-1.46,1.49.63,1.49,1.46,1.49,1.46-.61,1.46-1.49ZM815.82,417.63c0-.79-.54-1.33-1.33-1.33s-1.33.54-1.33,1.33.54,1.33,1.33,1.33,1.33-.54,1.33-1.33Z"/>
    <path class="st2" d="M828.44,421.41h1.11v1.49h-1.11v1.8h-1.74v-1.8h-4.66v-.83l4.73-6.9h1.67v6.24ZM826.7,421.41v-3.63l-2.46,3.63h2.46Z"/>
    <path class="st2" d="M835.91,416.77h-3.2v2.13h3v1.6h-3v4.2h-1.86v-9.53h5.06v1.6Z"/>
  </g>
  <g>
    <path class="st2" d="M582.22,363.78c.53,0,1.56,0,2.33.6.56.43.89,1.17.89,1.97,0,1.23-.81,1.73-1.07,1.87.63.1,1,.37,1.24.6.57.54.69,1.29.69,1.79,0,.56-.16,1.34-.81,1.93-.71.63-1.58.77-2.41.77h-3.2v-9.53h2.36ZM581.72,367.73h.53c.29,0,1.44-.03,1.44-1.24,0-.87-.67-1.2-1.43-1.2h-.54v2.44ZM581.72,371.79h.8c.34,0,.86-.01,1.27-.26.46-.27.59-.73.59-1.1,0-.3-.1-.81-.7-1.09-.4-.19-.87-.19-1.27-.19h-.69v2.63Z"/>
    <path class="st2" d="M597.64,368.55c0,2.9-2.08,4.97-5.08,4.97s-5.08-2.07-5.08-4.97,2.08-4.98,5.08-4.98,5.08,2.08,5.08,4.98ZM595.73,368.55c0-1.93-1.31-3.3-3.17-3.3s-3.17,1.37-3.17,3.3,1.31,3.28,3.17,3.28,3.17-1.36,3.17-3.28Z"/>
    <path class="st2" d="M601.86,365.38v7.93h-1.86v-7.93h-2.14v-1.6h6.14v1.6h-2.14Z"/>
    <path class="st2" d="M610.19,371.3h-3.84l-.84,2h-2.01l4.1-9.53h1.46l3.98,9.53h-2l-.84-2ZM609.64,369.79l-1.36-3.43-1.36,3.43h2.71Z"/>
    <path class="st2" d="M614.07,373.3v-9.53h1.29l5.8,6.36v-6.36h1.86v9.53h-1.29l-5.8-6.37v6.37h-1.86Z"/>
    <path class="st2" d="M626.96,363.78v9.53h-1.86v-9.53h1.86Z"/>
    <path class="st2" d="M635.97,372.96c-.57.3-1.33.56-2.36.56-1.67,0-2.69-.57-3.48-1.33-1.1-1.06-1.53-2.24-1.53-3.64,0-1.73.71-2.97,1.53-3.73.96-.9,2.14-1.26,3.5-1.26.67,0,1.47.11,2.34.59v2.17c-.87-1-1.96-1.07-2.3-1.07-1.91,0-3.16,1.57-3.16,3.33,0,2.11,1.63,3.26,3.23,3.26.89,0,1.67-.39,2.23-1.04v2.17Z"/>
    <path class="st2" d="M643.25,371.3h-3.84l-.84,2h-2.01l4.1-9.53h1.46l3.98,9.53h-2l-.84-2ZM642.71,369.79l-1.36-3.43-1.36,3.43h2.71Z"/>
    <path class="st2" d="M648.99,363.78v7.93h2.94v1.6h-4.8v-9.53h1.86Z"/>
    <path class="st2" d="M581.15,380.91h1.34l2.53,6.06,2.64-6.06h1.34l1.6,9.53h-1.89l-.86-5.87-2.56,5.87h-.63l-2.44-5.87-.97,5.87h-1.89l1.77-9.53Z"/>
    <path class="st2" d="M593.77,386.08l-3.27-5.17h2.2l2.04,3.31,2.04-3.31h2.2l-3.36,5.17v4.36h-1.86v-4.36Z"/>
    <path class="st2" d="M605.25,382.51h-3.43v2.13h3.28v1.6h-3.28v2.6h3.43v1.6h-5.28v-9.53h5.28v1.6Z"/>
    <path class="st2" d="M616.68,385.68c0,2.9-2.08,4.97-5.08,4.97s-5.08-2.07-5.08-4.97,2.08-4.98,5.08-4.98,5.08,2.08,5.08,4.98ZM614.77,385.68c0-1.93-1.31-3.3-3.17-3.3s-3.17,1.37-3.17,3.3,1.31,3.29,3.17,3.29,3.17-1.36,3.17-3.29Z"/>
    <path class="st2" d="M618.32,390.43v-9.53h1.29l5.8,6.36v-6.36h1.86v9.53h-1.29l-5.8-6.37v6.37h-1.86Z"/>
    <path class="st2" d="M634.18,385.33h4.37v.11c0,.64-.09,2.64-1.4,3.94-.99.99-2.2,1.26-3.38,1.26s-2.41-.24-3.46-1.29c-.33-.33-1.41-1.53-1.41-3.67,0-1.84.83-2.97,1.4-3.54.71-.73,1.91-1.46,3.76-1.46.71,0,1.47.11,2.2.5.61.31,1.29.89,1.79,1.74l-1.61.87c-.33-.64-.81-.97-1.11-1.13-.4-.2-.9-.3-1.34-.3-.76,0-1.61.27-2.2.84-.54.53-.96,1.44-.96,2.51,0,1.27.54,2.03.94,2.41.43.41,1.1.81,2.11.81.63,0,1.34-.17,1.87-.57.37-.29.74-.77.9-1.46h-2.46v-1.6Z"/>
    <path class="st2" d="M642.68,380.91c1.33,0,2.49.14,3.54.93,1.16.87,1.83,2.26,1.83,3.84s-.66,2.96-1.91,3.84c-1.11.79-2.16.91-3.48.91h-2.46v-9.53h2.48ZM642.05,388.83h.57c.47,0,1.5-.03,2.33-.63.76-.54,1.19-1.51,1.19-2.53s-.41-1.97-1.17-2.54c-.77-.57-1.71-.63-2.34-.63h-.57v6.33Z"/>
    <path class="st2" d="M659.4,385.68c0,2.9-2.08,4.97-5.08,4.97s-5.08-2.07-5.08-4.97,2.08-4.98,5.08-4.98,5.08,2.08,5.08,4.98ZM657.48,385.68c0-1.93-1.31-3.3-3.17-3.3s-3.17,1.37-3.17,3.3,1.31,3.29,3.17,3.29,3.17-1.36,3.17-3.29Z"/>
    <path class="st2" d="M661.04,390.43v-9.53h1.29l5.8,6.36v-6.36h1.86v9.53h-1.29l-5.8-6.37v6.37h-1.86Z"/>
    <path class="st2" d="M676.9,385.33h4.37v.11c0,.64-.09,2.64-1.4,3.94-.99.99-2.2,1.26-3.38,1.26s-2.41-.24-3.46-1.29c-.33-.33-1.41-1.53-1.41-3.67,0-1.84.83-2.97,1.4-3.54.71-.73,1.91-1.46,3.76-1.46.71,0,1.47.11,2.2.5.61.31,1.29.89,1.79,1.74l-1.61.87c-.33-.64-.81-.97-1.11-1.13-.4-.2-.9-.3-1.34-.3-.76,0-1.61.27-2.2.84-.54.53-.96,1.44-.96,2.51,0,1.27.54,2.03.94,2.41.43.41,1.1.81,2.11.81.63,0,1.34-.17,1.87-.57.37-.29.74-.77.9-1.46h-2.46v-1.6Z"/>
    <path class="st2" d="M582.22,398.04c.53,0,1.56,0,2.33.6.56.43.89,1.17.89,1.97,0,1.23-.81,1.73-1.07,1.87.63.1,1,.37,1.24.6.57.54.69,1.29.69,1.79,0,.56-.16,1.34-.81,1.93-.71.63-1.58.77-2.41.77h-3.2v-9.53h2.36ZM581.72,402h.53c.29,0,1.44-.03,1.44-1.24,0-.87-.67-1.2-1.43-1.2h-.54v2.44ZM581.72,406.05h.8c.34,0,.86-.01,1.27-.26.46-.27.59-.73.59-1.1,0-.3-.1-.81-.7-1.08-.4-.19-.87-.19-1.27-.19h-.69v2.63Z"/>
    <path class="st2" d="M593.57,405.57h-3.84l-.84,2h-2.01l4.1-9.53h1.46l3.98,9.53h-2l-.84-2ZM593.03,404.05l-1.36-3.43-1.36,3.43h2.71Z"/>
    <path class="st2" d="M600.21,398.04c1.31,0,1.99.34,2.43.71.73.61.94,1.43.94,2.14,0,.93-.37,1.74-1.11,2.24-.24.17-.59.33-1.04.41l2.97,4.01h-2.31l-2.54-3.83h-.23v3.83h-1.86v-9.53h2.76ZM599.31,402.42h.53c.36,0,1.83-.04,1.83-1.44s-1.46-1.43-1.8-1.43h-.56v2.87Z"/>
    <path class="st2" d="M583.52,424.7h-1.4l-3.31-9.53h1.97l2.13,6.48,2.33-6.57h1.03l2.2,6.57,2.29-6.48h1.97l-3.53,9.53h-1.4l-2.09-6.04-2.19,6.04Z"/>
    <path class="st2" d="M598.8,422.7h-3.84l-.84,2h-2.01l4.1-9.53h1.46l3.98,9.53h-2l-.84-2ZM598.25,421.18l-1.36-3.43-1.36,3.43h2.71Z"/>
    <path class="st2" d="M605.43,415.17c1.31,0,1.99.34,2.43.71.73.61.94,1.43.94,2.14,0,.93-.37,1.74-1.11,2.24-.24.17-.59.33-1.04.41l2.97,4.01h-2.31l-2.54-3.83h-.23v3.83h-1.86v-9.53h2.76ZM604.53,419.55h.53c.36,0,1.83-.04,1.83-1.44s-1.46-1.43-1.8-1.43h-.56v2.87Z"/>
    <path class="st2" d="M612.08,415.17h1.34l2.53,6.06,2.64-6.06h1.34l1.6,9.53h-1.89l-.86-5.87-2.56,5.87h-.63l-2.44-5.87-.97,5.87h-1.88l1.77-9.53Z"/>
    <path class="st2" d="M631.09,417.34c-.56-.74-1.21-.81-1.56-.81-1,0-1.31.63-1.31,1.11,0,.23.07.44.3.64.23.21.54.33,1.14.54.74.26,1.44.51,1.93.96.43.39.81,1.03.81,2,0,1.86-1.34,3.13-3.31,3.13-1.76,0-2.79-1.07-3.28-1.8l1.21-1.16c.46.93,1.33,1.27,2,1.27.84,0,1.47-.51,1.47-1.31,0-.34-.11-.61-.37-.86-.36-.33-.93-.51-1.47-.7-.5-.17-1.1-.4-1.58-.83-.31-.27-.76-.8-.76-1.77,0-1.4.94-2.8,3.06-2.8.6,0,1.73.11,2.7,1.11l-.97,1.27Z"/>
    <path class="st2" d="M643.67,419.94c0,2.9-2.09,4.97-5.08,4.97s-5.08-2.07-5.08-4.97,2.09-4.98,5.08-4.98,5.08,2.08,5.08,4.98ZM641.75,419.94c0-1.93-1.31-3.3-3.17-3.3s-3.17,1.37-3.17,3.3,1.31,3.29,3.17,3.29,3.17-1.36,3.17-3.29Z"/>
    <path class="st2" d="M647.16,415.17v5.98c0,.73.24,1.17.46,1.41.27.33.77.66,1.51.66s1.24-.33,1.51-.66c.21-.24.46-.69.46-1.41v-5.98h1.86v5.83c0,.9-.14,1.81-.71,2.54-.69.9-1.89,1.37-3.11,1.37s-2.43-.47-3.11-1.37c-.57-.73-.71-1.64-.71-2.54v-5.83h1.86Z"/>
    <path class="st2" d="M655.05,424.7v-9.53h1.29l5.8,6.36v-6.36h1.86v9.53h-1.29l-5.8-6.37v6.37h-1.86Z"/>
    <path class="st2" d="M668.57,415.17c1.33,0,2.49.14,3.54.93,1.16.87,1.83,2.26,1.83,3.84s-.66,2.96-1.91,3.84c-1.11.79-2.16.91-3.48.91h-2.46v-9.53h2.48ZM667.95,423.1h.57c.47,0,1.5-.03,2.33-.63.76-.54,1.19-1.51,1.19-2.53s-.41-1.97-1.17-2.54c-.77-.57-1.71-.63-2.34-.63h-.57v6.33Z"/>
    <path class="st2" d="M581.83,438.64c.17-.2,1.29-1.47,1.63-1.99.26-.39.56-.97.56-1.53,0-.86-.61-1.44-1.41-1.44-.97,0-1.49.77-1.51,1.58h-1.91c.09-1.94,1.46-3.18,3.34-3.18,2.21,0,3.36,1.51,3.36,3.03s-.99,2.53-1.73,3.33l-1.64,1.79h3.44v1.6h-6.91l2.8-3.18Z"/>
    <path class="st2" d="M587.19,437.06c0-3.27,1.79-4.97,3.69-4.97s3.69,1.7,3.69,4.98-1.79,4.97-3.69,4.97-3.69-1.7-3.69-4.98ZM589.04,437.06c0,2.49,1.01,3.38,1.83,3.38s1.83-.9,1.83-3.38-1.03-3.37-1.83-3.37-1.83.9-1.83,3.37Z"/>
    <path class="st2" d="M597.91,438.64c.17-.2,1.29-1.47,1.63-1.99.26-.39.56-.97.56-1.53,0-.86-.61-1.44-1.41-1.44-.97,0-1.49.77-1.51,1.58h-1.91c.09-1.94,1.46-3.18,3.34-3.18,2.21,0,3.36,1.51,3.36,3.03s-.99,2.53-1.73,3.33l-1.64,1.79h3.44v1.6h-6.91l2.8-3.18Z"/>
    <path class="st2" d="M609.27,438.54h1.11v1.49h-1.11v1.8h-1.74v-1.8h-4.66v-.83l4.73-6.9h1.67v6.24ZM607.53,438.54v-3.63l-2.46,3.63h2.46Z"/>
    <path class="st2" d="M612.4,439.79c.63,0,1.11.49,1.11,1.11s-.49,1.11-1.11,1.11-1.11-.49-1.11-1.11.49-1.11,1.11-1.11Z"/>
    <path class="st2" d="M614.5,437.06c0-3.27,1.79-4.97,3.68-4.97s3.68,1.7,3.68,4.98-1.79,4.97-3.68,4.97-3.68-1.7-3.68-4.98ZM616.35,437.06c0,2.49,1.01,3.38,1.83,3.38s1.83-.9,1.83-3.38-1.03-3.37-1.83-3.37-1.83.9-1.83,3.37Z"/>
    <path class="st2" d="M628.42,432.77l-2.31,3.01c.29-.13.63-.23,1.04-.23.7,0,1.54.27,2.1.81.5.47.9,1.29.9,2.29,0,.8-.23,1.6-.87,2.3-.81.89-1.74,1.08-2.71,1.08s-1.93-.19-2.71-.97c-.51-.51-.93-1.24-.93-2.31,0-1.16.53-2.09,1.2-2.97l2.8-3.74,1.5.73ZM627.77,440.07c.23-.23.51-.63.51-1.26,0-.57-.2-1-.53-1.31-.36-.34-.76-.46-1.23-.46-.56,0-.93.19-1.24.51-.34.36-.51.71-.51,1.24s.17.96.53,1.29c.24.23.66.47,1.23.47.6,0,1-.24,1.24-.49Z"/>
    <path class="st2" d="M632.33,439.79c.63,0,1.11.49,1.11,1.11s-.49,1.11-1.11,1.11-1.11-.49-1.11-1.11.49-1.11,1.11-1.11Z"/>
    <path class="st2" d="M634.42,437.06c0-3.27,1.79-4.97,3.69-4.97s3.69,1.7,3.69,4.98-1.79,4.97-3.69,4.97-3.69-1.7-3.69-4.98ZM636.28,437.06c0,2.49,1.01,3.38,1.83,3.38s1.83-.9,1.83-3.38-1.03-3.37-1.83-3.37-1.83.9-1.83,3.37Z"/>
    <path class="st2" d="M644.36,433.9h-1.37v-1.6h3.23v9.53h-1.86v-7.93Z"/>
  </g>
  <g>
    <path class="st2" d="M507.02,365.37h-3.43v2.13h3.28v1.6h-3.28v2.6h3.43v1.6h-5.28v-9.53h5.28v1.6Z"/>
    <path class="st2" d="M508.75,373.3v-9.53h1.29l5.8,6.36v-6.36h1.86v9.53h-1.29l-5.8-6.37v6.37h-1.86Z"/>
    <path class="st2" d="M520.75,363.77l2.54,6.4,2.54-6.4h2.03l-4.03,9.53h-1.11l-4-9.53h2.03Z"/>
    <path class="st2" d="M529.06,371.26c.63,0,1.11.49,1.11,1.11s-.49,1.11-1.11,1.11-1.11-.49-1.11-1.11.49-1.11,1.11-1.11Z"/>
    <path class="st2" d="M503.59,380.91v7.93h2.94v1.6h-4.8v-9.53h1.86Z"/>
    <path class="st2" d="M517.16,385.68c0,2.9-2.08,4.97-5.08,4.97s-5.08-2.07-5.08-4.97,2.08-4.98,5.08-4.98,5.08,2.08,5.08,4.98ZM515.25,385.68c0-1.93-1.31-3.3-3.17-3.3s-3.17,1.37-3.17,3.3,1.31,3.29,3.17,3.29,3.17-1.36,3.17-3.29Z"/>
    <path class="st2" d="M525.71,390.09c-.57.3-1.33.56-2.36.56-1.67,0-2.69-.57-3.48-1.33-1.1-1.06-1.53-2.24-1.53-3.64,0-1.73.71-2.97,1.53-3.73.96-.9,2.14-1.26,3.5-1.26.67,0,1.47.11,2.34.59v2.17c-.87-1-1.96-1.07-2.3-1.07-1.91,0-3.16,1.57-3.16,3.33,0,2.11,1.63,3.26,3.23,3.26.89,0,1.67-.39,2.23-1.04v2.17Z"/>
    <path class="st2" d="M528.06,388.39c.63,0,1.11.49,1.11,1.11s-.49,1.11-1.11,1.11-1.11-.49-1.11-1.11.49-1.11,1.11-1.11Z"/>
    <path class="st2" d="M504.74,399.64v7.93h-1.86v-7.93h-2.14v-1.6h6.14v1.6h-2.14Z"/>
    <path class="st2" d="M510.58,403.21l-3.27-5.17h2.2l2.04,3.31,2.04-3.31h2.2l-3.36,5.17v4.36h-1.86v-4.36Z"/>
    <path class="st2" d="M519.54,398.04c1.07,0,1.81.11,2.51.73.77.69.97,1.61.97,2.3,0,.37-.06,1.4-.79,2.13-.53.53-1.31.84-2.41.84h-1.2v3.53h-1.86v-9.53h2.77ZM518.63,402.44h.76c.36,0,.81,0,1.21-.3.34-.27.51-.7.51-1.11,0-.53-.26-.89-.53-1.09-.39-.27-.87-.3-1.31-.3h-.64v2.8Z"/>
    <path class="st2" d="M523.99,405.52c.63,0,1.11.49,1.11,1.11s-.49,1.11-1.11,1.11-1.11-.49-1.11-1.11.49-1.11,1.11-1.11Z"/>
    <path class="st2" d="M506.42,417.34c-.56-.74-1.21-.81-1.56-.81-1,0-1.31.63-1.31,1.11,0,.23.07.44.3.64.23.21.54.33,1.14.54.74.26,1.44.51,1.93.96.43.39.81,1.03.81,2,0,1.86-1.34,3.13-3.31,3.13-1.76,0-2.79-1.07-3.29-1.8l1.21-1.16c.46.93,1.33,1.27,2,1.27.84,0,1.47-.51,1.47-1.31,0-.34-.11-.61-.37-.86-.36-.33-.93-.51-1.47-.7-.5-.17-1.1-.4-1.59-.83-.31-.27-.76-.8-.76-1.77,0-1.4.94-2.8,3.06-2.8.6,0,1.73.11,2.7,1.11l-.97,1.27Z"/>
    <path class="st2" d="M512.15,416.77v7.93h-1.86v-7.93h-2.14v-1.6h6.14v1.6h-2.14Z"/>
    <path class="st2" d="M517.98,420.34l-3.27-5.17h2.2l2.04,3.31,2.04-3.31h2.2l-3.36,5.17v4.36h-1.86v-4.36Z"/>
    <path class="st2" d="M526.04,415.17v7.93h2.94v1.6h-4.8v-9.53h1.86Z"/>
    <path class="st2" d="M535.47,416.77h-3.43v2.13h3.29v1.6h-3.29v2.6h3.43v1.6h-5.28v-9.53h5.28v1.6Z"/>
    <path class="st2" d="M506.42,434.47c-.56-.74-1.21-.81-1.56-.81-1,0-1.31.63-1.31,1.11,0,.23.07.44.3.64.23.21.54.33,1.14.54.74.26,1.44.51,1.93.96.43.39.81,1.03.81,2,0,1.86-1.34,3.13-3.31,3.13-1.76,0-2.79-1.07-3.29-1.8l1.21-1.16c.46.93,1.33,1.27,2,1.27.84,0,1.47-.51,1.47-1.31,0-.34-.11-.61-.37-.86-.36-.33-.93-.51-1.47-.7-.5-.17-1.1-.4-1.59-.83-.31-.27-.76-.8-.76-1.77,0-1.4.94-2.8,3.06-2.8.6,0,1.73.11,2.7,1.11l-.97,1.27Z"/>
    <path class="st2" d="M511.15,432.3v9.53h-1.86v-9.53h1.86Z"/>
    <path class="st2" d="M513.24,441.83v-9.53h1.29l5.8,6.36v-6.36h1.86v9.53h-1.29l-5.8-6.37v6.37h-1.86Z"/>
    <path class="st2" d="M531.19,441.48c-.57.3-1.33.56-2.36.56-1.67,0-2.69-.57-3.48-1.33-1.1-1.06-1.53-2.24-1.53-3.64,0-1.73.71-2.97,1.53-3.73.96-.9,2.14-1.26,3.5-1.26.67,0,1.47.11,2.34.58v2.17c-.87-1-1.96-1.07-2.3-1.07-1.91,0-3.16,1.57-3.16,3.33,0,2.11,1.63,3.26,3.23,3.26.89,0,1.67-.39,2.23-1.04v2.17Z"/>
    <path class="st2" d="M538.12,433.9h-3.43v2.13h3.29v1.6h-3.29v2.6h3.43v1.6h-5.28v-9.53h5.28v1.6Z"/>
  </g>
  <line class="st1" x1="766.45" y1="360.88" x2="766.45" y2="495.19"/>
  <line class="st1" x1="502.63" y1="340.97" x2="1030.27" y2="340.97"/>
  <g>
    <path class="st2" d="M809.2,488.16h1.2l-.57,2.9c-.03.14-.06.33-.06.49,0,.41.21.49.37.49.26,0,.51-.27.66-.47.31-.43.56-1.11.56-1.79,0-1.53-1.04-3.2-3.41-3.2-2.61,0-3.9,2.13-3.9,3.94,0,1.56.89,3.01,2.3,3.53.6.21,1.24.24,1.59.24.79,0,1.69-.11,2.67-.47l.27,1.09c-1.06.36-2.01.46-2.86.46-1.11,0-2.5-.2-3.64-1.26-1.06-.97-1.5-2.36-1.5-3.6,0-2.99,2.23-5,5.07-5s4.47,2.04,4.47,4.17c0,1.99-1.19,3.33-2.36,3.33-.5,0-.97-.27-1.1-.8-.43.6-1.06.91-1.76.91-1.09,0-2.01-.77-2.01-2.24,0-1.88,1.34-2.86,2.49-2.86.5,0,1.08.17,1.41.74l.12-.6ZM808.77,490.32c0-.54-.29-1.06-.93-1.06-.73,0-1.3.69-1.3,1.56,0,.74.5,1.08.97,1.08.61,0,1.26-.61,1.26-1.58Z"/>
    <path class="st2" d="M823.67,490.43c0,2.9-2.08,4.97-5.08,4.97s-5.08-2.07-5.08-4.97,2.08-4.98,5.08-4.98,5.08,2.08,5.08,4.98ZM821.76,490.43c0-1.93-1.31-3.3-3.17-3.3s-3.17,1.37-3.17,3.3,1.31,3.29,3.17,3.29,3.17-1.36,3.17-3.29Z"/>
    <path class="st2" d="M826.87,489.8c.61-.86,1.48-1,2.01-1,1.83,0,3.04,1.41,3.04,3.28s-1.26,3.3-3.08,3.3c-.4,0-1.3-.07-1.97-1v.8h-1.74v-10.41h1.74v5.03ZM826.7,492.09c0,.99.71,1.76,1.71,1.76s1.71-.77,1.71-1.76-.71-1.74-1.71-1.74-1.71.76-1.71,1.74Z"/>
    <path class="st2" d="M834.13,485.35c.57,0,1.04.47,1.04,1.04s-.47,1.04-1.04,1.04-1.04-.47-1.04-1.04.47-1.04,1.04-1.04ZM835,489v9.46h-1.74v-9.46h1.74Z"/>
    <path class="st2" d="M838.4,484.78v6.48l2.31-2.26h2.26l-2.9,2.71,3.13,3.47h-2.31l-2.3-2.64-.19.17v2.47h-1.74v-10.41h1.74Z"/>
    <path class="st2" d="M845.71,490.49v4.7h-1.74v-4.7h-.69v-1.49h.69v-2.11h1.74v2.11h1.2v1.49h-1.2Z"/>
    <path class="st2" d="M850.01,490.49v4.7h-1.74v-4.7h-.69v-1.49h.69v-2.11h1.74v2.11h1.2v1.49h-1.2Z"/>
    <path class="st2" d="M853.09,493.15c.63,0,1.11.49,1.11,1.11s-.49,1.11-1.11,1.11-1.11-.49-1.11-1.11.49-1.11,1.11-1.11Z"/>
    <path class="st2" d="M858.73,485.66c1.31,0,1.99.34,2.43.71.73.61.94,1.43.94,2.14,0,.93-.37,1.74-1.11,2.24-.24.17-.59.33-1.04.41l2.97,4.01h-2.31l-2.54-3.83h-.23v3.83h-1.86v-9.53h2.76ZM857.83,490.05h.53c.36,0,1.83-.04,1.83-1.44s-1.46-1.43-1.8-1.43h-.56v2.87Z"/>
    <path class="st2" d="M869.98,493.46c-.19.46-.89,1.93-3.04,1.93-1,0-1.76-.29-2.37-.87-.69-.64-.97-1.44-.97-2.41,0-1.23.5-1.99.94-2.43.73-.71,1.58-.87,2.33-.87,1.26,0,1.99.5,2.41,1.01.66.79.74,1.76.74,2.43v.14h-4.63c0,.37.1.77.3,1.04.19.26.57.59,1.24.59s1.16-.31,1.44-.81l1.6.26ZM868.38,491.27c-.14-.84-.83-1.24-1.47-1.24s-1.31.41-1.46,1.24h2.93Z"/>
    <path class="st2" d="M876.02,490.89c-.37-.34-.83-.54-1.43-.54-1.16,0-1.74.84-1.74,1.74,0,1.01.76,1.76,1.8,1.76.39,0,.9-.11,1.37-.54v1.7c-.34.17-.89.39-1.6.39-.97,0-1.83-.37-2.38-.9-.47-.44-.99-1.21-.99-2.37,0-1.09.44-1.96,1.07-2.51.76-.67,1.63-.8,2.23-.8.64,0,1.17.13,1.67.37v1.71Z"/>
    <path class="st2" d="M883.06,489.67c.61.56,1.04,1.41,1.04,2.43s-.43,1.86-1.04,2.41c-.53.49-1.33.87-2.5.87s-1.97-.39-2.5-.87c-.61-.56-1.04-1.41-1.04-2.41s.43-1.87,1.04-2.43c.53-.49,1.33-.87,2.5-.87s1.97.39,2.5.87ZM882.3,492.1c0-.97-.74-1.76-1.74-1.76s-1.74.79-1.74,1.76.73,1.74,1.74,1.74,1.74-.8,1.74-1.74Z"/>
    <path class="st2" d="M885.44,489h1.74v.93c.27-.53.64-.79.77-.86.27-.17.61-.27,1.03-.27.3,0,.54.07.74.14l-.23,1.63c-.23-.16-.46-.23-.81-.23-.33,0-.81.07-1.16.5-.33.41-.34.94-.34,1.37v2.97h-1.74v-6.18Z"/>
    <path class="st2" d="M895.16,484.78h1.74v10.41h-1.74v-.8c-.63.9-1.46,1-1.9,1-1.9,0-3.16-1.49-3.16-3.3s1.24-3.28,3.07-3.28c.47,0,1.4.08,1.99,1v-5.03ZM891.91,492.09c0,.99.71,1.76,1.71,1.76s1.71-.77,1.71-1.76-.71-1.74-1.71-1.74-1.71.76-1.71,1.74Z"/>
    <path class="st2" d="M900.3,489.8c.61-.86,1.49-1,2.01-1,1.83,0,3.04,1.41,3.04,3.28s-1.26,3.3-3.08,3.3c-.4,0-1.3-.07-1.97-1v.8h-1.74v-10.41h1.74v5.03ZM900.13,492.09c0,.99.71,1.76,1.71,1.76s1.71-.77,1.71-1.76-.71-1.74-1.71-1.74-1.71.76-1.71,1.74Z"/>
    <path class="st2" d="M911.44,489h1.74v6.18h-1.74v-.8c-.63.9-1.46,1-1.9,1-1.9,0-3.16-1.49-3.16-3.3s1.24-3.28,3.07-3.28c.47,0,1.4.08,1.99,1v-.8ZM908.18,492.09c0,.99.71,1.76,1.71,1.76s1.71-.77,1.71-1.76-.71-1.74-1.71-1.74-1.71.76-1.71,1.74Z"/>
    <path class="st2" d="M914.83,489h1.74v.93c.27-.53.64-.79.77-.86.27-.17.61-.27,1.03-.27.3,0,.54.07.74.14l-.23,1.63c-.23-.16-.46-.23-.81-.23-.33,0-.81.07-1.16.5-.33.41-.34.94-.34,1.37v2.97h-1.74v-6.18Z"/>
  </g>
  <g>
    <path class="st2" d="M507.21,489.67c.61.56,1.04,1.41,1.04,2.43s-.43,1.86-1.04,2.41c-.53.49-1.33.87-2.5.87s-1.97-.39-2.5-.87c-.61-.56-1.04-1.41-1.04-2.41s.43-1.87,1.04-2.43c.53-.49,1.33-.87,2.5-.87s1.97.39,2.5.87ZM506.45,492.1c0-.97-.74-1.76-1.74-1.76s-1.74.79-1.74,1.76.73,1.74,1.74,1.74,1.74-.8,1.74-1.74Z"/>
    <path class="st2" d="M511.33,489.8c.61-.86,1.49-1,2.01-1,1.83,0,3.04,1.41,3.04,3.28s-1.26,3.3-3.08,3.3c-.4,0-1.3-.07-1.97-1v.8h-1.74v-10.41h1.74v5.03ZM511.16,492.09c0,.99.71,1.76,1.71,1.76s1.71-.77,1.71-1.76-.71-1.74-1.71-1.74-1.71.76-1.71,1.74Z"/>
    <path class="st2" d="M518.6,485.35c.57,0,1.04.47,1.04,1.04s-.47,1.04-1.04,1.04-1.04-.47-1.04-1.04.47-1.04,1.04-1.04ZM519.47,489v9.46h-1.74v-9.46h1.74Z"/>
    <path class="st2" d="M522.87,484.78v6.48l2.31-2.26h2.26l-2.9,2.71,3.13,3.47h-2.31l-2.3-2.64-.19.17v2.47h-1.74v-10.41h1.74Z"/>
    <path class="st2" d="M530.18,490.49v4.7h-1.74v-4.7h-.69v-1.49h.69v-2.11h1.74v2.11h1.2v1.49h-1.2Z"/>
    <path class="st2" d="M534.47,490.49v4.7h-1.74v-4.7h-.69v-1.49h.69v-2.11h1.74v2.11h1.2v1.49h-1.2Z"/>
    <path class="st2" d="M537.56,493.15c.63,0,1.11.49,1.11,1.11s-.49,1.11-1.11,1.11-1.11-.49-1.11-1.11.49-1.11,1.11-1.11Z"/>
    <path class="st2" d="M541.92,484.78v6.48l2.31-2.26h2.26l-2.9,2.71,3.13,3.47h-2.31l-2.3-2.64-.19.17v2.47h-1.74v-10.41h1.74Z"/>
    <path class="st2" d="M547.49,489h1.74v.93c.27-.53.64-.79.77-.86.27-.17.61-.27,1.03-.27.3,0,.54.07.74.14l-.23,1.63c-.23-.16-.46-.23-.81-.23-.33,0-.81.07-1.16.5-.33.41-.34.94-.34,1.37v2.97h-1.74v-6.18Z"/>
  </g>
  <line class="st0" x1="474.74" y1="361.83" x2="341.38" y2="495.19"/>
</svg>