<?xml version="1.0" encoding="UTF-8"?>
<svg id="Layer_1" xmlns="http://www.w3.org/2000/svg" version="1.1" viewBox="0 0 1366 537.08">
  <!-- Generator: Adobe Illustrator 30.2.1, SVG Export Plug-In . SVG Version: 2.1.1 Build 1)  -->
  <defs>
    <style>
      .st0 {
        fill: #020203;
      }
    </style>
  </defs>
  <path class="st0" d="M621.71,381.21c0,41.37-33.71,73.55-73.55,73.55v70.49c79.68,0,144.04-64.36,144.04-144.04v-245.17h-70.49v245.17Z"/>
  <path class="st0" d="M148.22,125.32c-73.55,0-133.31,59.76-133.31,133.31s59.76,133.31,133.31,133.31,133.31-59.76,133.31-133.31-59.76-133.31-133.31-133.31ZM148.22,321.45c-35.24,0-62.82-27.58-62.82-62.82s27.58-62.82,62.82-62.82,62.82,27.58,62.82,62.82-29.11,62.82-62.82,62.82Z"/>
  <path class="st0" d="M594.13,258.63c0-73.55-59.76-133.31-133.31-133.31-32.18,0-61.29,10.73-84.28,30.65V10.39h-70.49v370.82h70.49v-19.92c22.98,18.39,52.1,30.65,84.28,30.65,73.55,0,133.31-59.76,133.31-133.31ZM397.99,258.63c0-35.24,27.58-62.82,62.82-62.82s62.82,27.58,62.82,62.82-27.58,62.82-62.82,62.82-62.82-27.58-62.82-62.82Z"/>
  <circle class="st0" cx="656.95" cy="54.83" r="49.03"/>
  <polygon class="st0" points="1000.19 136.04 899.06 136.04 813.25 221.85 813.25 10.39 742.76 10.39 742.76 381.21 813.25 381.21 813.25 322.99 839.3 296.94 923.57 381.21 1024.71 381.21 889.86 246.37 1000.19 136.04"/>
  <path class="st0" d="M1124.31,76.28h-70.49v59.76h-41.37v70.49h41.37v98.07c0,61.29,50.57,111.86,111.86,111.86v-70.49c-22.98,0-41.37-18.39-41.37-41.37v-98.07h41.37v-70.49h-41.37v-59.76h0Z"/>
  <path class="st0" d="M1351.09,206.53v-70.49h-41.37v-59.76h-70.49v59.76h-41.37v70.49h41.37v98.07c0,61.29,50.57,111.86,111.86,111.86v-70.49c-22.98,0-41.37-18.39-41.37-41.37v-98.07h41.37Z"/>
</svg>