<?xml version="1.0" encoding="UTF-8"?>
<svg id="Layer_1" xmlns="http://www.w3.org/2000/svg" version="1.1" viewBox="0 0 439.87 768">
  <!-- Generator: Adobe Illustrator 30.2.1, SVG Export Plug-In . SVG Version: 2.1.1 Build 1)  -->
  <path d="M63.71,761.15l-11.91-1.93c-4-.65-10.62-.85-13.16-4.44l-5.24-7.43c-5.76-8.17-4.47-27.64-4.13-37.52.54-15.74.52-31.27.11-47.15l-.29-11.23-.66-41.15-.77-45.84-.74-37.49-.82-39.51-.75-41.32-.79-34.97-.78-16.26-.77-38.04-.84-43.55-.77-39.61-.73-31.21-.77-18.58-.77-37.29c-.31-15.02-1.23-29.68-.18-44.7l.5-7.21c.17-2.4,2-4.63,4.54-4.59,5.64.09,10.86.09,16.28.48,6.19.44,12.2.44,18.36.09l15.65-.9c6.49-.37,12.82-.33,19.35.08,10.76.66,21.24.33,32.29.34,3.21,0,7.33-.91,10.38-2,1.78-3.63,2.28-7.84,3.38-11.67l3.11-10.88c1.44-5.03,3.59-9.73,5.52-14.58,3.89-9.77,10.12-17.87,15.98-26.38,1.87-2.71,3.34-5.57,5.43-7.99l9.35-10.86c4.65-5.39,12.38-11.66,18.25-15.98,3.12-3.88,13.6-10.74,17.73-12.42l12.36-5.04c2.31-.94,4.8-3.4,7.42-3.94l15.4-3.15,9.78-2.26c7.66-1.77,15.14-.93,22.72-.61,1.91.08,4.06,1.06,5.69,1.4l32.23,6.63c2.59.53,4.97,1.87,7.4,2.79,5.71,2.17,11.61,3.49,16.85,6.45,4.86,2.74,10.11,4.8,14.4,8.21s12.94,10.9,16.4,14.68c11.18,12.21,6.93,9.59,13.93,17.88,11.37,13.46,14.68,22.51,22.04,38.58,6.18,13.5,10.07,30.73,9.73,45.68-.16,6.94-2.08,13.31-4.15,19.78-3.92,12.26-6.45,17.23-12.7,28.81-6.59,12.23-16.55,24.06-26.92,33.53-3.12,2.85-6.48,5.24-9.82,7.93s-7.29,4.71-10.89,7.14c-1.76,1.19-3.64,2.74-5.64,3.52l-11.86,4.61c-2.38.93-5,2.24-7.73,2.39l-14.87.81c-1.35.19-2.25,3.47-2.26,5.31l-.35,140.29-.43,161.12.41,78.94.23,102.74c0,4.1-1.54,9.23-3.23,12.19l-5.7,3.04-9.93,3.42c-3.68,1.27-6.83,3.59-10.96,3.84l-27.54,1.66-77.54.24-7.89-.61-26.02-.53-21.5-.83c-6.62-.26-13.33-.87-19.95-.74-6.37.12-12.3.27-18.62-.06l-16.4-.86c-1.55-.08-3.78-.99-5.42-1.25Z"/>
</svg>