<?xml version="1.0" encoding="UTF-8"?>
<svg id="Layer_1" xmlns="http://www.w3.org/2000/svg" version="1.1" viewBox="0 0 439.87 768">
  <!-- Generator: Adobe Illustrator 30.2.1, SVG Export Plug-In . SVG Version: 2.1.1 Build 1)  -->
  <path d="M345.1,718.49c-.14,4.69-.56,8.86-.41,13.17.15,4.67-1.07,8.63-2.1,12.86-1.26,5.16-2.38,8.74-7.81,10.74-5.98,2.2-12.17,4.32-18.8,4.89l-48.37,4.17c-20.54,1.77-60.72,1.69-81.82.95l-26.3-.93-33.35-.78c-12.62-.3-56.18-5.78-65.6-10.65-7.32-3.79-9.07-14.82-9.23-22.43l-.8-38.45-.94-25.32-.81-26.52-1.7-28.97-4.33-63.63-10.11-154.47-2.1-29.67-3.67-59.47-.86-13.71-.87-15.27-.67-14.47-1.3-16.35-.4-37.21c-.03-3.04.5-6.78,1.35-9.59,4.37-1.74,8.52-2.16,13.13-2.4l8.62-.44c14.42-.74,28.6-.65,42.9.14l16.19.9,33.95.83c11.26.28,22.27.54,33.57.14,12.18-.43,22.07.73,36.73,0l12.79-.64c6.72-.33,13.03.88,19.63,1.36,9.73.7,19.34.31,29.22-.09,5.42-.22,11.5,1.34,16.68-.31l9.92-3.17c1.66-.89,1.12-6.35-.59-6.83-1.42-.21-4.32-.29-5.21-.99-1.85-1.48-2.28-6.51-3.65-8.7-2.79-4.46-3.04-10.81-4.61-16.38l-3.19-11.29c-3.11-10.98-6.97-22.18-13.14-31.85-6.37-9.99-14.57-18-21.99-27.23-1.3-1.61-2.43-4.6-3.09-6.33-3.44-2.76-6.73-5.6-9.72-8.9l-8.43-9.32c5.52-3.71,10.71-2.99,15.19.88s14.39,1.19,26.85,18.91c4.36,6.2,8.45,11.5,13.81,17.07,1.76,1.83,3.81,9.91,5.75,8.26.6-.51,1.34-1.26,2.86-2.8,3.52,2.31,6.35,6.51,8.44,10.63,9.63,19.05,2.69,21.94,9.32,37.73,11.6-11.27,1.88-21.84,9.24-23.01,2.75-.44,5.22-2.48,5.85-5.08,2.9-11.97,8.71-13.39,7.98-18.6-.2-1.4-2.58-3.25-3.52-4.71-4.01-6.2-6.14-13.27-7.8-20.62l2.84-4.61c-.87-7.86-4.91-14.34-9.34-20.7-5.31-7.62-9.53-15.72-16.35-22.04l-17.28-16.01-7.03-4.75c-6.3-4.26-12.09-8.73-18.74-12.45,4.87-2.54,9.71-1.9,14.5-.52l14.23,4.1c4.41,1.27,7.85,5.74,11.47,8.98l6.7.66c12.11,12.17,13.86,16.46,27.46,28.61,11.05,9.87,6.07,25.79,9.44,38.17,4.1-2.68,5.64-5.79,6.94-9.8,1.23-3.8,3.35-6.55,5.64-9.8l5.63-7.98c.44-.63,1.03-2.29,1.25-3,.27-.9-3.23-1.86-3.89-1.16-1.24,1.31-1.23,4.56-1.08,6.72l-3.14-5.02c-.4-.63.04-2.68.43-3.27s2.85.76,3.44.42c7.26-4.21,4.26-21.42,13.66-16.16,1.19.67,3.64,2.95,3.14,4.36-2.83,8.04-7,14.4-11.59,21.11-5.7,8.32-6.81,7.06-10.12,14.58l10.97-3.19c2.12-.62,4.06-2.52,7.23-2.89,4.22-.49,6.35-10.52,12.65-13.57,5.89,3.29,9.12-.95,13.39-3.15s23.88-5.5,26.89-1.66c-2.46,3.49-5.69,4.68-9.1,6.47-8.39,4.42-14.69,11.23-21.67,17.38-8.8,7.75-16.63,15.43-24.19,24.32-16.85,19.81-27.79,12.53-34.65,35.34l-2.42,8.03c-.66,1.63-4.07,3.95-4.87,5.6-2.32,4.81-3.61,9.74-3.76,15.05,7.68,2.79,10.2,3.22,14.62-2.33,4.14-5.18,8.75,2.07,11.64-.46l8.97-7.84c2.92-2.55,12.36-7.26,16.58-4.09,5.16-3.62,11.59-5.14,17.85-6.19l9.31-1.55c2.84-.47,5.36-.62,8.51.27-5.15,4.06-9.22,7.39-14.31,10.08-5.91,3.12-10.93,7.35-16.33,10.85-5.96,3.87-11.3,6.74-15.37,13.07-5.07,7.87-12.55,12.94-19.26,21.11l25.72.75c2.75.08,7.78,1.08,7.32,4.7-1.06,8.14-1.8,16.05-2.07,24.22l-.82,24.73-.89,33.81-.79,29.92-.85,20.3-1.89,27.7-5.28,72.23-.69,16.16-.89,17.04-.86,16.16-.84,14.42-.77,13.6-.95,18.7-.76,15.29-.95,22.23-4.85,99.03-1.79,29.52-.66,22.35Z"/>
</svg>