<?xml version="1.0" encoding="UTF-8"?>
<svg id="Layer_1" xmlns="http://www.w3.org/2000/svg" version="1.1" viewBox="0 0 439.87 768">
  <!-- Generator: Adobe Illustrator 30.2.1, SVG Export Plug-In . SVG Version: 2.1.1 Build 1)  -->
  <path d="M431.23,546.15l-.76,36.48-.88,25.06-.61,28.03-.69,10.23-.77,14.14c-.21,3.9-.72,7.88-.51,11.8.32,6.02-1.31,11.51-1.34,17.39l-.38,61.26c-.05,7.33-14.49,9.61-19.76,10l-10.83.82-13.43.73-24.4.5-12.11.33-29.23.59-13.32.83-47.12.79c-12.31.21-24.26.91-36.46.04l-22.62-1.61-26.77-.84-29.57-.55-14.13-.83c-7.79-.46-20.38-2.36-27.43-5.35-6.73-2.86-8.9-10.86-9.15-17.53l-.82-22.04-.74-40.88-.74-48.15-.79-47.22-.81-41.6-.79-76.31-.8-114.15-.68-64.71-.15-6.47-.05-13.42c-.02-6.69-.3-13.17.11-19.87.39-6.44.39-12.87.05-19.36-.23-4.32-.03-8.35.03-12.66l.32-21.43c.09-6.26,13.34-1.81,19.59-6.64,1.67-1.29-6.85-2.82-13.61-7.91-13.05-9.82-11.4-4.18-21.48-11.55-13.8-10.1-13.64-7.1-25.73-12.72l-22.7-10.54c-7.53-3.5-20.42-1.48-15.84-5.86,3.03-2.91,7.32-2.2,11.26-3.07,10.39-2.3,8.28-3.3,15.43-1.92,4.57.88,9.04,1.35,13.62,2.96,2.18.77,6.34,1.6,7.78.14l2.48-2.5c.63-.64,2.72.61,3.4,1.29l7.04,7.02c5.67.71,13.58,4.77,18.46,7.86,1.97,1.25,4.81-.61,5.59-2.6.99-2.54-.75-4.2-2.19-6.43l-6.89-10.69c-3.96-6.15-9.28-12.81-12.48-19.31-.5-1.01-2.89-1.65-4.07-1.97l-.48-9.83c-.14-2.95-3.89-5.92-5.31-8.49-1.79-3.22-3.51-6.49-5.95-8.93s-3.1-4.59-.78-7.88l-5.14-7.65c-2.3-3.42-1.93-6.27-1.98-10.14-.07-4.77-.18-9.76.19-14.8,4.74,1.23,4.56,5.61,5.52,9,.87,3.06,14.88,9.93,22.48.62,12.38,6.08,9.55,5.29,23.52,7.31l.21-7.58c3.75-6.2-1.05-5.62-1.93-15.72l3.76.1,6.87-11.41c3.06-5.09,8.57-7.11,13.59-12.38,8.55-8.97,8.85-4.14,9.01-4.44-4.55,8.22-2.57,7.59-9.65,16.39-3.96,4.92-4.81,10.88-5.53,16.93-1.03,8.64-1.96,17.72,2.21,25.66l7.1,13.53c2.46,4.69,5.29,9.3,8.24,13.65,7.55,11.15-2.32,8.27,5.37,25.12,1.84,4.02,2.56,8.67,3.79,13.01,3.32,11.74-3.21,3.86,3.51,19.75,2.17,5.12,3.97,9.51,7.59,13.81,1.22-3.69.95-6.71,1.26-10.3.25-3,.6-5.74-.31-8.66-.84-2.67-.53-5.39,1.49-7.32,5.96-5.71-1.23-10.41,5.68-15.44l.03-8.5c4.22.24,5.64-1.04,7.19-4.09,1.38-2.72,1.1-5.02,1.05-8.23s-.25-8.06-1.47-10.91c-.59-3.29,5.99-.45,6.8-6.68,1.15-8.84,2.55-1.39,4.74-15.14,1.99,1.04,4.75,2.12,5.04,1.1-1.39-11.81,2.29-1.85-1.6-14.42-.81-2.63-.62-6.13-.08-9.24,2.3-.94,3.61,5.62,7.55,3.07.94-6.45,2-12.99,3.33-19.03,3.12.1,4.33-.93,5.01-3.33.99-3.53,2.86-6.41,4.66-9.51,2.67-4.59,5.58-9.05,10.73-10.61l5.12,2.13c-4.71,3.61-4.21,7.33-4.48,11.66-.26,3.98-.53,7.83-.54,11.86l-.03,10.34-.31,12.54-.42,12.54-.23,6.41-.45,20.95c-.61,28.24-2,51.74-8.19,79.92-.53,2.4.97,5.07,1.47,7.43l1.18,5.59c2.9.14,7.4.22,10.21-.02l6.59-8.93c1.53.33,3.86.48,4.53-.42,11.32-15.16,10.33-4.21,16.17-13.21l4.2-6.47c2.8-4.32,4.12-7.85,9.57-9.09,2.18-.8,4.3-5.25,5.71-7.21l5.02-6.98c1.11-1.55,1.18-4.29,1.02-6.34,8.43-3.38,12.97,5.36,26.45-2.84l41.11,9.44c19.64,4.51,32.72,11.73,48.64,23.49,2.78,2.05,13.89,8.61,12.14,11.65-1.33,2.32-6.77,1.79-6.21,4.88.59,3.25.62,4.67.15,7.78-.27,1.8,2.6,2.77,4.54,2.85l11.17.49c6.4.28,28.44,1.91,32.27,5.37,1.41,1.28,1.12,3.84.98,5.95l-.78,11.79c-.52,7.9-.26,15.72-.05,23.62l.32,12.02c.29,10.97,0,21.7-.3,32.79l-.59,21.06-.17,7.35-.61,31.87-.88,21.91-.64,27.14-.13,8.18-.2,4.56-.57,56.25-.8,58.84-.77,32.94Z"/>
</svg>