<?xml version="1.0" encoding="UTF-8"?>
<svg id="Layer_1" xmlns="http://www.w3.org/2000/svg" version="1.1" viewBox="0 0 699.98 768">
  <!-- Generator: Adobe Illustrator 30.2.1, SVG Export Plug-In . SVG Version: 2.1.1 Build 1)  -->
  <g id="_x33_hvZMY">
    <path d="M391.24,765.32c-9.31.75-17.73,2.29-26.72,2.31l-61.17.08c-3.01,0-6.25-.71-9.23-.9-26.12-1.71-47.53-5.16-60.4-30.81-2.92-5.82-5.6-11.48-7.51-17.76-5.54-18.32-6.51-36.89-6.59-55.93-.02-3.99-.25-7.7-.02-11.62l1.07-18.14.92-14.47.74-13.76.48-12.24.49-10.24c.17-3.56,1.35-8.35,5.39-9.93,5.12-1.99,11.14-2.36,16.84-2.6,10.5-.46,20.43-1.36,30.85-3.05l8.13,1.02c1.47-.69,3.19-1.28,4.31-1.09l12.57,2.15-4.66-16.08c-2.96-10.2-5.73-20.25-9.92-30.03l-13.09-30.56-11.35,8.96c-10.54,8.32-14.29,4.51-26.56,8.31-3.13.97-3.76,4.34-5.83,7.48l-5.82-6.23c-1.52-1.63-4.44-2.74-6.83-3.1-6.43-.99-12.29-1.74-18.68-3.37-2.64-.68-4.69-5.18-4.67-8.13.09-14.16,4.37-28.23,12.9-39.57,2.05-2.72,12.92-15.92,7.18-18.35-.87-.37-2.57.23-3.44,1.2-9.61,10.64-16.54,22.86-21.73,36.21-2.33,5.98-3.25,11.09-3.13,18.27-5.56-4.09-12.46-11.33-11.92-18.32,1.09-13.95,6.87-26.46,15.96-36.86l18.92-21.64c2.99-3.42,8.59-12.38,5.16-14.94-.57-.42-2.27-.48-2.95-.23-6.77,2.53-11.38,7.13-15.58,12.73-12.38,16.54-11.48,12.98-16.29,33.08-1.96,8.16-7.31,15.08-14.52,19.33-1.77,1.04-4.04-.72-4.86-2.33-3.15-6.14-6.33-11.79-10.11-17.55-2.14-3.26-3.38-6.07-4.39-10.35l-5.4-.94-2.4-21.24c-.99-8.78,3.54-16.97,11.58-20.41l4.38-18.82c1.62-6.97,9.91-23.03,15.36-27.28l30.06-23.4c2.53-1.97,6.47-2.97,9.3-4.18l-5.75-19.52c-3.19-2.53-8.25-.81-11.98-1.93-2.72-.82.49-12.85-7.17-25.22-5.11-8.25-10.93-15.78-17.35-23.06-4.25-4.82-9.72-7.97-16.07-9.08-3,2.71,11.63,19.12,14.05,21.96,5.82,6.84,10.97,13.96,14.44,22.3,3.76,9.02,4,19.69-.85,28.17-2.84,4.96-15.49,13.91-21.67,13.79l-.29-15.51c-.1-5.5-8.79-45.7-14.57-46.64l-1.04,4.91-5.52-4.16c-.68-.52-3.08-.29-3.61.19,3.38,10.67,6.11,20.72,8.9,31.38,2.51,9.6,11.49,15.48,7.74,25.77-3.21,8.81-8.22,18.19-15.86,24.03-3.29,2.51-7.32,5.42-11.23,6.19-.61.09-.34-1.96-.19-2.62,2.18-10.02,3.83-20.16,4.74-30.53.97-11.03-1.01-21.92-3.7-32.53-.55-2.15-3.3-3.82-4.98-3.53-7.25,1.24-4.46,14.19-4.59,22.91-.1,6.93-.44,13.63-.06,20.64.56,10.35,10.07,29.21-.75,34.07-16.86,7.57-29.56,8.26-45.23,16.83-6.14,3.36-8.76,8.28-10.12,15.66-2.83-4.83-4.91-7.45-8.11-10.46l-11.58-10.89c-5.32-5.01-10.77-12.95-15.98-17.96-11.79-11.33-16.03-29.18-3.5-42.24,6-6.26,12.9-11.08,20.19-15.97,8.98-6.02,17.12-12.46,25.56-19.22,17.92-14.38,21.74-10.01,33.38-18.76.85-.64,1.61-2.73,1.51-3.68-.84-7.22-23.74,3.84-27.99,6.88-14.36,10.28-27.56,21.46-39.96,33.92l-19.34,19.44c-7-7.57-8.1-22.66.32-29.94,12.29-10.62,24.91-20.8,39.32-28.43l12.96-6.86c.84-.44,23.07-15.08,18.53-17.23-11.14-1.48-27.94,4.91-38.06,9.99-5.88,2.95-10.91,6.73-15.37,11.56-6.42,6.96-17.64,14.31-26.9,19.49-.74-2.79-.09-4.14.95-6.32,2.94-6.16,6.4-12.37,6.37-19.56-.04-10.55,3.74-21.88,14.26-26.35,8.31-3.53,18.65-4.8,27.6-3.58s17.21,1.39,26.04-2.29c3.9-1.63,13.33-4.21,11.86-9.26-.21-.72-2.05-1.56-2.85-1.44-10.21,1.43-19.81,2.87-29.6,5.36-6.77,1.72-12.84,2.92-20.48,3.64,5.12-17.84,12.74-30.49,26.21-42.01,13.25-11.32,19.09-7.09,31.71-13.13l17.16-8.22c7.98-3.82,16.53-3.75,24.46.12,14.74,7.19,16.04,10.93,20.44,26.75,10.84-10.17,22.16-22.7,36.26-12.65,4.98-2.1,9.26-3.92,13.89-7.58-5.77-2.38-10.59-5.3-16.14-5.91l-15.64-1.75c6.71-9.67,15.75-15.5,24.81-21.56l9.67-6.47c1.11-.74,1.97-2.37,1.85-3.66-.1-1.04-2.5-2.22-3.72-1.9l-20.96,5.51c-12.56,3.3-23.35,18.57-29.21,18.93-4.67.29-9.11-2.84-12.69-5.59-4.98-3.82-9.8-7.09-15.04-10.32-3.89-2.4-6.96-5.17-8.49-10.06,3.05-2.03,6.41-3.59,10.03-4.47l25.01-6.12,17.32-4.24,16.96-1.87c1.14-.13,2.8-.88,3.19-1.65.46-.9-.29-3.39-1.1-4.08-2.8-2.38-6.47-2.76-9.97-2.32-6.79.84-13.51,1.94-20.16,1.96-11.15.03-25.46,3.03-36.31,6.11-5.85,1.66-11.57,4.61-17.88,4.95-5.39-1.46-13.66-5.87-16.16-11.14l-9.42-19.89c-2.24-4.74,4.07-15.33-3.46-26.43-1.57-2.31-5.36-1.84-8.84-2.81-1.94-.54,17.06-14.9,28.54-13.74,15.46,1.56,19.25,4.95,32.22,10.68,2.12.94,7.95-1.46-10.62-10.05-15.91-7.36-23.71-7.19-41.38-8.33,17.66-7.13,43.59,2.9,60.64,10.09,5.51,2.32,12.81,7.24,14.29,7.27.51.01.66-2.22.27-2.63-2.61-2.73-7.39-5.99-11.13-7.77l-14.3-6.81c-9.48-4.51-19.47-4.94-30.45-6.45,8.93-3.02,18.5-1.33,26.92,2.57,7.6,3.51,15.09,6.71,22.22,11.12l18.44,11.4,14.6,9.96c-3.08-10.33-9.78-14.69-18.24-18.91l-16.44-8.2-15.51-6.89c-1.87-.83-3.82-1.89-5.65-2.88,5.96-1.16,10.7,1.56,15.68,3.9l20.74,9.75c6.73,3.16,12.81,7.08,19.09,11.09,9.15,5.83,16.85,12.82,23.39,21.57.49.66,2.1,1.91,2.87,1.79s1.9-.68,3.14-1.28c5.19-2.51-.33-11.77-3.45-14.61-4.23-3.84-7.56-7.95-8.66-13.88,5.11,1.46,8.72,3.67,12.6,6.25,11.8,7.84,16.04,10.49,20.52,24.59,8.97-1.22,15.85-4.08,21.51,6.51,5.23,9.77,11.1,19.78,21.14,25.35,28.11-6.83,22.94,12.83,39.62,20.33,5.41-14.12,8.96-19.4,22.99-23.7,10-3.07,14.23-4.53,24.15-1.86,6.24,1.68,11,4.45,15.46,10.26,5.31-6.67,10.23-12.52,14.9-19.12,4.44-6.29,8.88-12.51,16.62-15.09,5.84-1.95,12.48-1.03,18.94-1.35,1-7.31,2.3-14.17,5.51-20.67,5.53-11.2,16.34-18.25,28.67-19.66,2.77-.32,5.79.1,7.94,2.08-2.5,11.39-6.69,12.99-6.6,25.21l.1,13.72c.03,4.62,4.15,7.44,8.72,6.68,2.8-.47,5.93-2.23,7.75-4.39l13.65-16.19,19.98-24.87c12.35-15.37,18.99-20.28,38.07-20.58l15.89-.25c-5.34,4.25-11.21,5.26-17.07,7.03-7.72,2.34-13.73,6.95-19.74,12.24-9.86,8.68-19.43,18.48-27.3,28.75-.38.49-.6,1.26-.65,1.58-.07.42,1.77.41,2.27.08,7.41-4.85,15.42-11.29,21.25-18.2,1.51-1.8,2.7-3.62,5.36-3.37-5.61,8.74-12.64,17.88-18.87,25.43-.52.63-.77,1.8-.83,2.2-.53,3.35,11.98-4.91,17.65-16.56,2.57-5.27,5.87-9.04,10.91-11.8,5.91-3.23,11.86-5.86,18.07-8.58,6.76-2.97,13.07-6.78,20.34-8.47,8.48-1.98,17.25-.11,24.92,3.56,1.75.84,3.29,2.7,3.43,4.13-1.16.62-13.72,2.69-10.77,5.68,1.99,2.01,15.21,6.22,19.55,11.9,1.26,1.65-13.83-.93-24.48,6.75-7.69,5.54-14.95,10.71-23.43,14.99-1.4.71-2.31,1.59-4.04,3.48,8.01.55,15.55-1.05,22.84-3.48,3.02-1,7.47-.93,10.65-.15l22.19,5.47c1.46,9.32-2.07,17.46-8.89,23.7l-17.74,16.23c-2.64,2.42-4.38,6.56-9.24,5.58l-5.76-9.08c-4.07-6.42-11.91,4.7-24.74,3.05-6.28-.81-12-1.49-18.35-2.96-3.99-.93-27.81-4.25-26.26-.08,1.26,3.41,12.74,6.77,16.85,8.13,11.77,3.9,26.04,13.91,35.6,21.69l6.37,5.18c-5.95,4.98-10.76,9.08-16.45,13.27l-13.49,9.93c-1.43,1.06-2.74-1.81-3.24-2.91-2.95-6.45-6.93-12.01-11.99-17.12-3.87-3.91-14.21-10.49-18.98-11.68-.4-.1-.34,1.75-.03,2.12l11.24,12.93c4.75,5.46,8.05,11.35,10.38,18.21-.97.96-3.25,2.21-4.45,2.2l-20.95-.22c-1.5-.02-3.12-.76-4.08,1.03,10.88,8.21,14.07,6.29,23.43,11.4,17.68,9.67,10.03-1.84,43.2,21.98,12.79,9.18,19.05,4.02,45.45,24.89,10.45,8.27,12.4,3.87,17.96,9.26.22.21.62,1.23.46,1.45-1.81,2.41-10-1.9-12.15-3.04l-14-7.41c-6.15-3.25-11.79-5.93-18.72-8.3l-1.18,1.28c3.75,3.23,7,5.38,11.24,7.22,17.87,7.77,17.85,12.58,40.42,21.16,5.96,2.27,11.46,5.74,14.42,11.46l4.84,9.35c.15.29.44,1.45.52,1.69s-.09.04-.67-.55c-7.46-5.57-14.85-10.66-22.69-15.58-3.71-2.33-6.91-5.13-11.75-5.92,5.66,6.45,12.74,10.28,19.72,14.64l13.45,8.4c.85.53,3.07,1.32,3.85,1.91,5.25,3.88,9.86,9.72,11.98,15.86,1.21,3.52,2.26,5.24,4.95,7.61l18.92,16.67c7,6.16,8.91,12.43,7.37,21.63-6.17-5.69-14.59-8.75-22.58-10.43-1.77-.37-4.03-2.24-5.11-4.07l-6.28-10.73c-.14-.24-1-.78-1.17-.92s-.16.93-.06,1.14l3.17,6.88-.95.83c-.19.16-1.16-.77-1.39-1.25-4.15-8.69-11.42-17.87-17.46-25.87-8.76-11.61-17.16-21.99-27.25-32.44l-8-8.29c-.17-.18-1.62-.1-1.51.13.12.24.47,1.1.76,1.48l19.91,25.84,15.53,20.08c2.24,2.9,4.05,6.1,5.86,9.41,2.17,3.95,9.59,14.18,4.58,10.54-11.21-8.13-21.26-19.07-29.65-30.17-5.32-7.03-10.44-13.06-15.8-19.8l-10.96-13.77-14.39-16c-.25-.28-.74-.89-1.21-1.49-.31-.39-.59.76-.37,1.09l11.05,16.99,12.95,20.49c2.78,4.4,5.56,8.49,7.91,13.22-4.26-2.92-7.79-5.29-11.99-7.84-6.23-3.77-11.23-8.83-17.06-13.21l-11.17-8.4c-6.64-4.99-11.03-11.68-12.47-20.02-.64-3.73-2.32-7.16-3.64-10.75-1.13-3.08-.15-7.52-5.14-8.68-1.81,5.03-3.11,10.31-2.36,16.08.41,3.17.84,5.88.14,9.28-5.29-3.67-10.57-7.8-10.86-13.72l-.59-12.34c-.1-2.08-5.23-3.81-7.04-4-.69,3.34-1.78,12.96-4.09,14.33-1.02.61-5.71-4.46-5.82-1.46-.36,10.51,6.54,17.88,10.52,27.59l5.32,12.99c.78,1.1.25.87-.85.34l-14.93-10.08c-1.75-1.18-4.51-4.14-6.41-3.81-10.25,1.77-13.07-7.25-22.93-9.2-1.95.31-.75.91.28,1.64l8.62,5.9c1.49,1.02,2.58,2.04,3.97,3.27,4.88,4.3,10.38,7.9,16,11.3,4.94,2.99,10,6.48,11.45,12.45,1.38,5.65-1.84,15.81-6.58,16.45-1.07.15-23.03-25.29-35.44-32.93l-15.84-9.75-14.24-11.08c-.52-.41-2.04-.69-2.49-.81-.59-.16-1.3,1.81-.91,2.47,8.23,13.55,20.31,17.37,31.82,28.82l26.84,26.71c1.86,1.85,3.53,1.02,5.79.54,10.22-2.19,7.89-4.84,21.97.54,4.73,1.81,8.98,3.17,13.78,4.53,9.83,2.77,11.04,8.77,24.43,13.12,10.48,3.4,18.77,9.34,25.17,18.25,12.68,17.64,6.11,18.05,18.23,35.35-4.28-.64-7.36-4.02-10.64-6.83-5.58-4.77-10.88-9.08-17.94-11.85-4.07-1.6-23.59-7.25-25.86-4.57-.34.4.4,2.24.91,2.54,7.29,4.22,17.01,3.04,29.69,12.04,8.28,5.88,15.45,12.69,23.23,19.25,3.37,2.84,7.4,5.25,9.64,9.13,2.59,4.49,4.03,9.25,4.72,15l-6.81-5.24,4.73,9.39c2.06,4.08,2.14,9.28,2.99,13.84l2.23,11.95c-5.37-9.47-10.67-17.59-19.75-23.43l-16.34-10.51-.95-.62c-.19-.13-1.05,0-.99.22.09.33.57,1.44,1.01,1.86,5.15,5.01,11.37,11.33,16.57,16.79l13.46,14.12c6.32,6.63,9.84,14.48,10.46,23.65l.45,6.62c-.74-.29-2.15-.8-2.33-1.06l-10.09-14.57c-2.82-4.08-6.74-6.78-9.76-10.5-4.83-5.94-8.8-12.11-14.36-17.6-4.88-4.83-11.5-10.24-16.22-14.37-3.23-2.82-1.42,7.59,7.55,15.84,6.97,6.42,12.53,13.4,18.74,20.4,5.75,6.48,11.24,12.44,15.55,20.01,2.03,3.56,4.6,7.51,5.67,11.4-1.93,7.34-7.06,12.34-11.44,18.18-1.95,2.61-3.37,5.61-5.73,8.34-5.19-15.7-24.37-14.77-36.92-20.83-2.31-1.11-3.35-4.54-3.14-7.03.85-10.09-.81-19.03-3.95-28.41-2.46-7.33-4.44-14.41-6.32-21.95-3.19-12.82-8.76-11.42-8.9-8.91-1.93,34.4,9.21,57.47,9.25,60.23.03,2.2-18.41-6.67-25.64-23-3.12-7.03-3.94-14.16-5.2-21.86-1.63-9.95,1.49-21.29,6.08-29.83.28-.52.18-2.18.14-2.66-.05-.63-2.25-.58-2.73-.12l-5.37,5.06-.79-2.96c-.1-.36-.18-1.1-.35-2.23l-1.7-.53c-.93,6.44-2.46,12.64-2.01,19.21l1.22,18.04c.49,7.28.56,13.71,2.51,21.26-10.74-3.24-19.76-8.97-26.06-17.72-2.39-3.32-4.95-7.87-4.4-12.11,1.63-12.46,6.01-23.56,11.99-34.36,8.74-15.77,2.86-25.53.55-21.02l-3.97,7.74c-7.04,13.74-14.27,17.65-16.15,37.36-.06.68.02,1.46-.27,1.45s-1.28-.29-1.73-.67c-6.52-5.52-15.31-12.46-22.39-17.83-3.9-2.96-5.8-6.45-5.62-10.63.19-4.4,1.78-7.99,5.39-10.82,10.62-8.3,4.56-23.21,2.07-25.46-4.68-4.23-11.42-4.99-17.36-6.03-10.31,8.84-21.9,30.87-27.93,43.19l-13.9,28.37-18.05,34.49-22.15,45.92c-2.75,5.7-4.32,33.18-9.99,43.32l1.15,1.29,6.01-14.21c2.97-7.02,6.33-14.06,10.6-20.41,5.09-7.56,16.14-19.79,22.73-26.47,5.94-6.01,12.18-11.26,17.53-17.98l1.25.36c-3.08,4.51-6.04,8.33-9.85,12.15-9.28,9.27-18.01,18.59-25.89,29.13-8.02,10.72-11.91,22.92-15.87,35.59l-7.74,24.76c-.25.81-.42,2.79.12,3.35,1.28,1.33,6.52.4,11.05.23,8.74-.32,14.38,2.74,20.45,2.92l9.34.28,15.89.69,15.42.67c1.09.05,2.74,1.93,2.83,3.12l3.5,48.46.51,10.19.61,13.36c.45,9.71.55,19.3.02,29.06-1.52,27.74-5.41,52.31-23.1,74.56-7.84,9.86-19.04,14.74-31.76,15.77ZM128.53,74.96l23.12-6.01c-.24-1.6-1.86-3.72-3.62-4.38-4.62-1.73-9-4.71-13.63-5.68-6.35-1.34-11.81-2.53-17.68-4.91-5.08-2.06-11.21.91-14.17,5.26-4.11,6.05-8.85,9.8-15.22,14.58,8.31,3.94,24.33,3.15,33.34,2.76,2.4-.1,5.5-1.01,7.86-1.62ZM176.43,56.02c.9,5.65,11.15,18.13,11.63,13.81.62-5.56-12.22-17.45-11.63-13.81ZM244.84,117.51c2.53,3.44,6.81,5.85,9.74,7.63.67.41,2.53-1.06,2.3-1.71-1.15-3.17-8.55-5.14-12.04-5.92ZM486.3,125.19c-1.08-1.59-2.49-2.57-4.45-2.89,1.09,1.58,2.5,2.56,4.45,2.89ZM407.31,145.51c-1.42.23-4.5-.38-4.17-2.21,1.34-7.57,6.69-9.7,3.33-13.03-7.93,1.13-16.16,3.12-23.73,5.72-2.29.79-4.65,2.57-5.37,4.68l-2.77,8.13c-.5.65-2.69-.67-3.09-1.38l-6.28-11.03c-5.29-9.29-16.85-9.8-25.2-8.04-4.12.87,9.59,1.58,9.27,1.52,7.18,1.3,12.78,6.29,15.94,12.75,4.27,8.75,2.33,18.9,7,19.15,9.95.53,17.24,5.18,24.9,11.62-.52-2.81-2.77-4.57-3.86-6.7.17-12.93,13.85-21.34,25.72-19.73l16.25,2.2,5.81-11.83c-17.27,7.58-16.98,5.47-33.72,8.18ZM284.35,141.11c2.72-.04,4.09-1.13,5.31-3.14-2.32-.08-5.34.57-5.31,3.14ZM443.65,143.2c-2.37.93-4.45,4.67-3.85,6.57.31.96,3.2,1.99,4.04,1.43,2.39-1.59,2.34-8.98-.18-8ZM225.75,148.01c.63-.25.98-2.24.51-2.6-2.83-2.11-10.36,4.43-10.04,6.41l9.53-3.82ZM292.64,152.95c2.55-1.91,4.34-3.63,6.04-5.8-2.96.7-7.03,1.59-6.04,5.8ZM199.05,170.18l35.63-18.1c-.91-.68-3-.97-4.02-.51l-21.15,9.39c-5.02,2.23-10.11,4.66-14.45,8.06.8,1.9,2.58,1.88,4,1.16ZM283.76,199.8l7.87-18.89c1.31-3.14,3.28-6.03,2.02-9.9l-6.79,15.52c-1.29,2.96-7.94,15.29-10.7,13.93-2.05-1.01-2.6-6.18-11.07-13.44-6.31-5.41-10.15-13.61-10.4-21.98l-.3-9.99c-8.24,3.07-8.41,10.46-6.21,17.02,8.37,25.02,15.94,49.76,22.44,75.35l5.48,21.58c8.39-10.61,8.67-11.41,22.02-14.29.12-13.63-.43-28.71-2.91-42.23-4.96,0-9.68,4.07-12.75,1.86-2.54-1.82.35-12.26,1.31-14.56ZM299.17,163.96c3.08.52,3.11-1.06,2.09-2.68l-2.09,2.68ZM302.98,251.48l.53-11.39c.47-9.99,1.3-19.66,3.06-29.49-.81-3.21.2-6.11.97-9.34l6.54-27.51c.3-1.25-.38-3.26-1.71-3.11-4.39,7.62-7.34,15.64-10.4,23.73-2.28,6.02-4.01,11.89-3.13,18.51,1.18,8.91,2.07,17.38,2.46,26.42l.55,12.74c.01.24,1.04,1.54,1.06,1.29l.09-1.84ZM347.99,177.28c-.52-2.9-2.83-5.47-5.77-5.98.03,3.14,2.08,5.61,5.77,5.98ZM201.71,223.83c-.45-.18-1.74.07-2.14.27-1.92.93,7.86,5.5,11.43,9.1l20.19,20.37c1.31,1.32,2.49,4.37,3.74,5.9,6.07-2.24,11.29-3.57,17.25-4.39,6.58-.91,11.21,2.12,17.99,5.15-1.42-7.36-3.08-13.56-5.03-20.27l-17.14-58.76c-.53-1.83-1.39-3.29-2.51-4.6-.75,3.19-.88,5.72-.38,8.65l2.97,17.35c.56,3.26-4.36,4.06-6.46,4.54-4.27.98-8.12-.69-10.79-4.29-3.01,3.66-5.85,6.86-9.63,9.06-5.28,3.08,5.87,5.85,12.52,16.51,6.05,9.71,6.99,23.15,3.72,20.69-12.35-9.31-18.39-18.36-35.73-25.28ZM225.94,183.57c-5.52-1.1-22.08,2.83-17.78,11.51,4.68-2.41,16.98-6.28,17.78-11.51ZM465.52,197.65c-.34-3.24-1.69-4.48-3.42-5.39-1.87-.98-3.95-.88-5.9.98,2.7,2.63,5.54,4.23,9.33,4.41ZM542.68,197.24c-.64-2.52-2.61-4.85-5.48-4.37.99,2.5,2.92,3.71,5.48,4.37ZM338.21,353.08l.72,21.43,1.07,21.36c.62,12.37,1.67,24.17,3.4,36.91,3.01-9.21,2.47-17.83,3.91-26.78l3.58-22.28c1.11-6.9,4.14-12.36,6.57-18.72,2.29-6.02.09-13.96.07-20.36-.06-21.88-3.84-38.09.68-60.76l-7.98-9.6-4.89-5.98c-4.78-2.82-22.86-7.67-17.6-15.9s11.21-16.01,17.39-23.68c3.7-4.6,2.28-7.99-1.14-12.19-.41-.51-2.34.62-2.87,1.21-6.4,7.05-5.03,13.63-10.06,10.56-4.12-2.52-5.86-6.51-8.24-10.7-1.82-3.2-9.37-10.2-11.76-8.81-3.83,2.22-4.5,30.86-4.62,36.51-.07,3.17-.84,7.12.48,10.04l15.12,9.51c4.66,2.93,8.21,8.82,7.58,14.37-.42,3.75-1.14,6.89-1.77,10.66,6.27,7.76,17.58,5,15.65,14.71-.78,3.91-1.48,7.07-2.74,11.58-3.19-1.67-4.35-3.47-6.53-5.7-4.16-4.26-9.44-7.01-14.6-10.12-1.22-.74-3.34-1.63-4.52-1.47-.5,1.94-.56,4.47-.02,6,.23.64,2.25,1.49,2.52.91l1.2-2.63.41,4.9c5.44,5.94,11.37,11.24,14.9,18.32l2.48,4.97,3.61-9.56c1.81,4.84-1.77,7.98-2.16,12.19-.57,6.19-.08,12.52.14,19.1ZM363.05,381.55c2.44-8.96,4.05-16.66,5.61-25.06,3.33-17.89,8.22-34.55,15.34-51.55-7.75-5.94-19.87-5.5-19.4-16.19.31-7.16,3.16-13.24,6.79-19.27l11.71-19.51c11.77-19.61,17.25-17.88,23.35-26.63.71-1.02.84-3.45.26-4.37-2.98-4.72-11.19-1.62-15.79,2.7-5.22,4.9-8.45,11.01-9.27,18.25-1.12,9.84-8.72,10.71-11.22,16.98-2.2,5.51-4.27,10.7-6.06,16.23l-4.27,13.2c-2.01,6.23-1.39,32.23-.83,39.9l1.66,22.63c.82,11.13.61,21.65,2.12,32.71ZM490.57,236.48c-1.16-3.33-22.03-22.2-23.96-15.03-.34,4.32,19.89,18.27,23.96,15.03ZM575.77,231.43c-.96-2.91-1.66-4.05-4.01-5.03.99,2.01,2.48,3.94,4.01,5.03ZM188.52,243.77c-4.42-4.89-9.74-8.03-15.43-9.65,4.47,4.84,10.04,8.32,15.43,9.65ZM223.22,269.67l-6.7-8.02c-3.33-3.98-11.15-15.08-15.9-16.77-.22-.08-.63,1.27.4,2.36,1.91,2.04,2.24,7.05,3.52,9.78l8.36,17.71c1.46,3.1-.07,6.65-.41,10.82,1.52.47,4.14-.04,5.66-1.13.92-.65,6.55-14.02,5.06-14.75ZM408.49,299.33c4.91-9.44,9.14-17.56,13.13-26.66,1.53-3.49,2.55-23.93-5.15-21.38-4.62,1.53-5.58,6.39-5.58,10.65l-2.63,16.23c-.24,6.99-.59,13.51.23,21.15ZM228.96,294.37c-8.24-.23-15.24,1.08-22.23,5.9-1.79-4.64.26-7.86,2.02-11.72-.37-2.02-2.13-4.85-3.89-6.35-6.39,9.03,2.56,31.11,7.29,40.04l10.75-14.52c3.36-4.54,6.79-8.12,10.96-12.66-1.01-1.13-2.85-.64-4.9-.69ZM369.96,468.78c6.74-21.49,15.36-41.25,24.05-61.6l9.96-23.31,11.81-27.36,6.92-17.8c.8-2.06,1.71-4.81,1-6.85-20.95-11.73-3.74-24.43-1.27-46.72.06-.53-.53-2.23-.91-1.98-1.78,1.19-3.73,5.25-4.4,7.21l-6.01,17.38c-1.36,3.93-2,7.83-2.92,11.99-.39,1.75-2.07,4.8-2.84,6.85l-6.94,18.54-13.66,36.06c-5.38,14.2-8.07,28.56-10.93,43.46l-7.02,36.48c-1.45,7.54-3.12,14.48-3.47,22.61,3.24-4.69,4.87-9.34,6.63-14.95ZM494.7,302.79c-7.21-4.64-13.2-9.67-19.25-15.58-1.17-1.14-2.5-2.41-4.34-1.4,7.23,9.02,12.61,11.23,21.57,19.79.55.53,2.38.5,2.8-.09s-.13-2.3-.78-2.72ZM29.35,348.16c2.89-5.1,29.33-34.51,33.71-38.1,9.07-7.42,21.42-10.42,18.9-17.42-.33-.92-2.12-2.61-3.11-2.44-2.48.43-5.1,1.91-6.93,3.38-4.56,3.66-8.87,6.88-13.73,10.09-7.43,4.91-14.67,9.78-20.76,16.24-9.26,9.81-23.16,22.69-12.79,36.56l4.7-8.3ZM272.26,292.17c-3.61-2.33-7.86,2.86-11.51,4.74-4.93,2.54-9.6,5.35-10.54,11.41,9.43.35,16-9.04,22.05-16.14ZM311.79,301.54c.13-2.73-1.34-4.83-2.92-5.93-1.73-1.21-4.4-1.51-6.29.18,1.37,3.22,5.2,6.43,9.2,5.74ZM378.26,369.07c5.52-18.28,9.29-36,10.53-54.7.17-2.58,1.94-5.43-1.3-7.29-6.59,15.43-10.9,30.61-14.32,46.67-4.28,20.12-7.56,39.86-9.81,60.49,4.71-7.18,5.77-14.92,8.05-22.44l6.86-22.72ZM395.31,312.26c-.42-.32-1.1-.51-2.08-.77-.95,6.14-2.74,11.22-2.14,17.32,1.72-2.55,5.8-15.34,4.21-16.55ZM376.08,394.49l2.9-8.87c2.16-6.62,4.09-12.98,6.71-19.52l18.75-46.67c-1.22-1.77-2.74-2.67-5.13-3.27l-12.59,35.21-5.53,19.22c-3.75,13.03-8.34,26.47-9.77,39.92l4.65-16ZM390.69,456.35l12.4-22.78,16.61-31.84c10.68-20.47,19.5-40.91,35.27-58.87-3.67-1.65-26.29-12.01-27.64-7.97-5.87,17.64-14.1,34.43-20.88,51.71-2.96,7.53-3.75,15.48-5.95,23.19l-6.17,21.62-10.17,34.39c3.01-2.6,4.55-5.84,6.53-9.46ZM322.58,349.07c-.97-3.88-2.57-7.16-5.17-10.14-.69,4.27,2.06,7.42,5.17,10.14ZM336.12,376.91l-.55-12c-1.4.92-3.3,2.7-4.2,4.18.71,2.93,1.96,5.59,4.75,7.82ZM349.99,474.24l3.87-27.67,3.76-26.05c1.78-12.34,2.43-24.09,1.75-36.38l-.78-14.04c-1.76,2.3-2.71,4.27-3.08,6.56-2.71,16.63-4.08,32.98-5.1,49.79l-.77,12.83-.57,26.94c-.06,2.65.35,5.38.92,8.02ZM600.88,393.76l-14.94-15.79c-5.69-6.02-11.56-4.78-11.36-3.43.63,4.34,14.47,14.3,18.75,17.03,2.45,1.56,4.99,3.59,7.56,2.19ZM341.22,449.64l-3.37-34.94-.9-13.13-.59-15.8c-.01-.37-.43-1.44-.66-1.72-.14-.18-.54-.16-.66.05-.11.2-.43,1.11-.47,1.37l-1.91,13.79c-1.04,7.51-2.23,14.47-3.71,21.99l4.11,26.31c1.26,8.08,2.15,15.78,7.33,22.75,1.93-1.02,1.06-18.11.81-20.67ZM322.2,433.54l.6-10.97c.18-3.21-.79-6.31-2.71-8.84l-11.85-15.63c-1.28-1.68-2.27-3.15-4.68-3.76,1.11,6.53,1.9,12.38,3.97,18.28s5.15,10.92,6.79,16.78l7.38,26.38c2.04-3.33.45-6.52.37-9.92-.09-4.12-.08-8.23.14-12.31ZM281.37,448.76l-2.27-15.69c-2.8-19.34-9.19-25.06-23.67-37.33-.7-.59-3.28-.7-3.85.01-2.36,2.93-1.27,7.18,1.28,9.84l5.32,5.56c15.81,16.53,10.84,23.79,21,38.9.19.29,1.43.91,1.57.6.09-.2.68-1.48.62-1.9ZM370.92,411.19c-2.13,6.37-5.6,12.54-4.42,19.77,2.04-4.63,4.29-14.22,4.42-19.77ZM376.31,477.26l6.49-22.02,10.73-34.31c-7.74,13.82-12.27,28.44-16,43.7l-2.93,12c-.07.29.19,1.68.28,1.92.08.22.31.3.5.13.18-.16.83-1.13.92-1.42ZM316.08,501.13c.87-6.97-1.31-12.58-1.67-18.81l-2.28-39.52c-.25-4.42-.67-8.57-2.96-12.44-.12,6.03-1.23,10.04-3.53,15.23-.95,2.15.08,6.21.29,8.83,1.5,19.4,1.28,28.45,10.15,46.71ZM270.61,473.26c-1.81-8.57-5.85-15.16-9.26-22.43l-4.94-10.52c-1.81-3.86-5.49-6.89-9.82-7.42-3.01-.37-5.66,2.38-6.42,5.1-1.99,7.12-.6,14.09,2.26,20.61s7.3,10.23,13.46,12.96c4.62,2.04,9.68,4.16,14.72,1.71ZM303.03,477.53c.14-5.05.07-9.32-.25-13.77l-.82-11.36c-3.06,2.78-3.88,23.28,1.07,25.13ZM333.07,493.87l-1.31-7.81c-.99-5.9-1.72-11.75-2.4-17.76-.38-3.31-.47-6.06-2.22-8.88-.2,3.8-.06,6.83.2,10.41,1.31,17.6,2.81,34.75,5.95,52.1.42,2.33,1.29,4.56,2.19,6.57,1.06-11.86-.44-22.85-2.42-34.63ZM303.15,496.22l-5.45-26.68c-3.13-.16-4.64,2.76-4.06,5.31,2.34,10.36,5.53,20.18,9.89,29.89.7-2.93.22-5.51-.39-8.53ZM319.55,489.84c.34-3.73-.14-6.53-.82-9.56l-1.58-7.07c-.7,1.49.4,17.42,2.4,16.63ZM341.76,496.83c.57-8.06-1.44-15.03-4.2-22.34-2.18-.88,2.41,22.81,4.2,22.34ZM300.61,522.23c-2.66-12.94-10.06-28.29-12.96-43.57l-10.89,4.49c-3.03,3.5,6,20.46,8.4,25.56l14.07,29.93c2.74,5.83,1.78-14.48,1.38-16.41ZM320.54,533.42l-1.56-15.22c-.6-5.87-3.22-11.42-6.98-16.16-.41,3.85.33,7.07.96,10.57,1.32,7.34,2.01,14.57,7.58,20.81Z"/>
  </g>
</svg>