<?xml version="1.0" encoding="UTF-8"?>
<svg id="Layer_1" xmlns="http://www.w3.org/2000/svg" version="1.1" viewBox="0 0 479.61 768">
  <!-- Generator: Adobe Illustrator 30.2.1, SVG Export Plug-In . SVG Version: 2.1.1 Build 1)  -->
  <path d="M109.2,4.17c7.04.64,14.55,2.11,21.22,4.82,4.52,1.83,5.57,6.74,4.08,10.93,4.48,5.38,3.82,20.98,3.16,27.76-.16,1.7-2.16,5.03-2.64,6.68l.65,25.12.8,27.22,2.9,81.28c.38,10.59,3.58,18.98,11.52,25.89l15.89,13.84c18.52,16.13,30.22,38.26,30.44,63.06l.43,47.1.92,79.71.86,119.91.88,92.02.49,107.42c.06,12.98-8.51,22.14-20.71,24.78-15.44,3.34-30.44,4.37-46.46,5.16-30.66,1.52-60.67,1.29-91.08-2.19-17.68-2.02-34.99-6.72-35.37-28.09l-.97-55.58-.37-201.98-.85-6.66.6-184.93c.07-23.29,12.64-44.23,28.43-59.57,14.05-13.64,25.96-17.8,26.66-40.68l2.08-68.3c.67-22.12,1.74-43.51.42-65.49-.45-7.48-5.6-17.33.69-34.58,1.44-3.93.03-8.85,5.85-10.56,6.4-1.88,13.66-2.88,20.22-4.11h19.25Z"/>
  <path d="M459.66,728.78c-27.62,12.01-72.54,22.78-102.76,26.84-16.29,2.19-31.97,3.92-48.28,3.87-8.19-.02-27.2-.27-28.24-10.05-.31-2.92,1.41-6.32,4.21-8.37,25.17-18.47,60.72-17.82,67.66-42.58,3.34-11.93,3.3-24.11,1.78-36.64-2.8-23.01-7.95-44.87-12.78-67.73-4.55-21.53-8.55-42.3-15.18-63.08-3.81-11.93-9.5-22.42-17.85-31.41-4.21-4.53-9.57-7.18-15.28-9.29-13.06-4.81-25.13-9.87-37.07-17.1-29.03-17.59-49-46.12-54.19-80.14-2.76-18.07-3.19-35.49-3.88-53.77-.51-13.47-1.42-74.36,4.6-82.61,3.47-4.76,9.23-7.52,14.65-9.69,29.78-11.95,76.26-20.22,108.45-22.5,6.99-.5,13.78-.47,20.57.51,4.86.7,8.29,3.8,10.58,7.99,18.47,33.87,35.64,76.04,47.77,112.89,15.6,47.39-.29,94.55-37.02,126.47-8.23,7.15-14.04,15.31-16.56,26.26-3.23,13.99-3.47,28.36-1.22,42.94,3.64,23.65,8.57,46.18,13.4,69.63,3.4,16.5,6.69,32.19,11.83,48.02,5.01,15.42,16.57,39.44,34.25,42.49,14.76,2.55,32.13,1.22,48.52,1.94,6.72.3,17.76,2.07,18.61,9.69.72,6.45-11.02,13.03-16.53,15.42Z"/>
</svg>