<?xml version="1.0" encoding="UTF-8"?>
<svg id="Layer_1" xmlns="http://www.w3.org/2000/svg" version="1.1" viewBox="540 240 320 300" width="320" height="300">
  <!-- Generator: Adobe Illustrator 29.2.1, SVG Export Plug-In . SVG Version: 2.1.0 Build 116)  -->
  <path d="M806.91,487.13l-.73,1.09c-7.3,10.91-24.78,17.43-46.76,17.43-17.32,0-33.5-5.11-41.23-13.01-2.47-2.52-3.69-4.97-3.65-7.3.13-5.64,3.56-9.44,5.34-11.04,11.75,6.29,25.31,9.62,39.28,9.62,8.47,0,50.72-1.11,50.72-23.11,0-22-42.25-23.11-50.72-23.11-14.03,0-27.59,3.32-39.27,9.61-1.78-1.63-5.22-5.47-5.35-11.03-.05-2.34,1.18-4.8,3.65-7.31,7.73-7.91,23.91-13.02,41.23-13.02,22,0,39.48,6.51,46.76,17.43l.73,1.09,18.57-12.4-.73-1.09c-5.51-8.22-22.91-27.35-65.33-27.35-23.72,0-45.1,7.37-57.18,19.72-6.75,6.86-10.22,14.96-10.03,23.4.23,11.39,5.8,19.67,9.64,24.03-3.82,4.35-9.38,12.61-9.64,24.03-.16,8.42,3.3,16.51,10.02,23.4,12.11,12.35,33.48,19.72,57.18,19.72,42.34,0,59.79-19.09,65.32-27.29l.74-1.09-18.57-12.4ZM742.65,460.8c5.26-1.39,10.81-2.1,16.51-2.1,8.86,0,16.09.92,21.38,2.1-5.28,1.18-12.54,2.1-21.38,2.1-5.71,0-11.25-.71-16.51-2.1Z"/>
  <path d="M607.72,241.03c-37.06,0-67.2,30.15-67.2,67.2,0,37.06,30.15,67.2,67.2,67.2,37.06,0,67.2-30.15,67.2-67.2,0-37.06-30.15-67.2-67.2-67.2ZM652.6,308.23c0,24.75-20.13,44.88-44.88,44.88-24.75,0-44.88-20.13-44.88-44.88,0-24.75,20.13-44.88,44.88-44.88,24.75,0,44.88,20.13,44.88,44.88Z"/>
  <path d="M607.72,393.57c-37.06,0-67.2,30.15-67.2,67.2s30.15,67.2,67.2,67.2c37.06,0,67.2-30.15,67.2-67.2,0-37.06-30.15-67.2-67.2-67.2ZM652.6,460.77c0,24.75-20.13,44.88-44.88,44.88-24.75,0-44.88-20.13-44.88-44.88,0-24.75,20.13-44.88,44.88-44.88,24.75,0,44.88,20.13,44.88,44.88Z"/>
  <path d="M800.7,246.36v39.53c-25.9-13.15-57.79-13.16-83.69-.01v-39.52s-22.32,0-22.32,0v123.78s22.32,0,22.32,0v-4.68c12.63,6.42,26.93,9.86,41.83,9.86,14.91,0,29.22-3.44,41.86-9.86v4.68h22.32s0-123.78,0-123.78h-22.32ZM717.02,312.2c24.02-18.66,59.67-18.66,83.69,0v26.92c-24.02,18.66-59.67,18.66-83.69,0v-26.92Z"/>
</svg>